# Tiled2Unity generated file. Do not modify by hand.
# Wavefront file for 'level_2_mesh_0003.obj'

# Vertices (Count = 64)
v -18.5 -3.5 0
v -19 -3.5 0
v -19 -3 0
v -18.5 -3 0
v -19 -3.5 0
v -19.5 -3.5 0
v -19.5 -3 0
v -19 -3 0
v -18.5 -4 0
v -19 -4 0
v -19 -3.5 0
v -18.5 -3.5 0
v -19 -4 0
v -19.5 -4 0
v -19.5 -3.5 0
v -19 -3.5 0
v -25 -5 0
v -25.5 -5 0
v -25.5 -4.5 0
v -25 -4.5 0
v -25.5 -5 0
v -26 -5 0
v -26 -4.5 0
v -25.5 -4.5 0
v -25 -5.5 0
v -25.5 -5.5 0
v -25.5 -5 0
v -25 -5 0
v -25.5 -5.5 0
v -26 -5.5 0
v -26 -5 0
v -25.5 -5 0
v -28 -6.5 0
v -28.5 -6.5 0
v -28.5 -6 0
v -28 -6 0
v -28.5 -6.5 0
v -29 -6.5 0
v -29 -6 0
v -28.5 -6 0
v -28 -7 0
v -28.5 -7 0
v -28.5 -6.5 0
v -28 -6.5 0
v -28.5 -7 0
v -29 -7 0
v -29 -6.5 0
v -28.5 -6.5 0
v -23.5 -12 0
v -24 -12 0
v -24 -11.5 0
v -23.5 -11.5 0
v -24 -12 0
v -24.5 -12 0
v -24.5 -11.5 0
v -24 -11.5 0
v -23.5 -12.5 0
v -24 -12.5 0
v -24 -12 0
v -23.5 -12 0
v -24 -12.5 0
v -24.5 -12.5 0
v -24.5 -12 0
v -24 -12 0

# Texture cooridinates (Count = 9)
vt 0 0.5
vt 0.5 0.5
vt 0.5 1
vt 0 1
vt 1 0.5
vt 1 1
vt 0 0
vt 0.5 0
vt 1 0

# Normal
vn 0 0 -1

# Mesh description
g level_2_mesh_0003

# Faces
f 1/1/1 2/2/1 3/3/1 4/4/1
f 5/2/1 6/5/1 7/6/1 8/3/1
f 9/7/1 10/8/1 11/2/1 12/1/1
f 13/8/1 14/9/1 15/5/1 16/2/1
f 17/1/1 18/2/1 19/3/1 20/4/1
f 21/2/1 22/5/1 23/6/1 24/3/1
f 25/7/1 26/8/1 27/2/1 28/1/1
f 29/8/1 30/9/1 31/5/1 32/2/1
f 33/1/1 34/2/1 35/3/1 36/4/1
f 37/2/1 38/5/1 39/6/1 40/3/1
f 41/7/1 42/8/1 43/2/1 44/1/1
f 45/8/1 46/9/1 47/5/1 48/2/1
f 49/1/1 50/2/1 51/3/1 52/4/1
f 53/2/1 54/5/1 55/6/1 56/3/1
f 57/7/1 58/8/1 59/2/1 60/1/1
f 61/8/1 62/9/1 63/5/1 64/2/1

