# Tiled2Unity generated file. Do not modify by hand.
# Wavefront file for 'level_2_mesh_0002.obj'

# Vertices (Count = 80)
v -4.5 -5.5 0
v -5 -5.5 0
v -5 -5 0
v -4.5 -5 0
v -5 -5.5 0
v -5.5 -5.5 0
v -5.5 -5 0
v -5 -5 0
v -4.5 -6 0
v -5 -6 0
v -5 -5.5 0
v -4.5 -5.5 0
v -5 -6 0
v -5.5 -6 0
v -5.5 -5.5 0
v -5 -5.5 0
v -24 -8.5 0
v -24.5 -8.5 0
v -24.5 -8 0
v -24 -8 0
v -24.5 -8.5 0
v -25 -8.5 0
v -25 -8 0
v -24.5 -8 0
v -24 -9 0
v -24.5 -9 0
v -24.5 -8.5 0
v -24 -8.5 0
v -24.5 -9 0
v -25 -9 0
v -25 -8.5 0
v -24.5 -8.5 0
v -11.5 -9.5 0
v -12 -9.5 0
v -12 -9 0
v -11.5 -9 0
v -12 -9.5 0
v -12.5 -9.5 0
v -12.5 -9 0
v -12 -9 0
v -11.5 -10 0
v -12 -10 0
v -12 -9.5 0
v -11.5 -9.5 0
v -12 -10 0
v -12.5 -10 0
v -12.5 -9.5 0
v -12 -9.5 0
v -3.5 -15.5 0
v -4 -15.5 0
v -4 -15 0
v -3.5 -15 0
v -4 -15.5 0
v -4.5 -15.5 0
v -4.5 -15 0
v -4 -15 0
v -21 -15.5 0
v -21.5 -15.5 0
v -21.5 -15 0
v -21 -15 0
v -21.5 -15.5 0
v -22 -15.5 0
v -22 -15 0
v -21.5 -15 0
v -3.5 -16 0
v -4 -16 0
v -4 -15.5 0
v -3.5 -15.5 0
v -4 -16 0
v -4.5 -16 0
v -4.5 -15.5 0
v -4 -15.5 0
v -21 -16 0
v -21.5 -16 0
v -21.5 -15.5 0
v -21 -15.5 0
v -21.5 -16 0
v -22 -16 0
v -22 -15.5 0
v -21.5 -15.5 0

# Texture cooridinates (Count = 9)
vt 0 0.5
vt 0.5 0.5
vt 0.5 1
vt 0 1
vt 1 0.5
vt 1 1
vt 0 0
vt 0.5 0
vt 1 0

# Normal
vn 0 0 -1

# Mesh description
g level_2_mesh_0002

# Faces
f 1/1/1 2/2/1 3/3/1 4/4/1
f 5/2/1 6/5/1 7/6/1 8/3/1
f 9/7/1 10/8/1 11/2/1 12/1/1
f 13/8/1 14/9/1 15/5/1 16/2/1
f 17/1/1 18/2/1 19/3/1 20/4/1
f 21/2/1 22/5/1 23/6/1 24/3/1
f 25/7/1 26/8/1 27/2/1 28/1/1
f 29/8/1 30/9/1 31/5/1 32/2/1
f 33/1/1 34/2/1 35/3/1 36/4/1
f 37/2/1 38/5/1 39/6/1 40/3/1
f 41/7/1 42/8/1 43/2/1 44/1/1
f 45/8/1 46/9/1 47/5/1 48/2/1
f 49/1/1 50/2/1 51/3/1 52/4/1
f 53/2/1 54/5/1 55/6/1 56/3/1
f 57/1/1 58/2/1 59/3/1 60/4/1
f 61/2/1 62/5/1 63/6/1 64/3/1
f 65/7/1 66/8/1 67/2/1 68/1/1
f 69/8/1 70/9/1 71/5/1 72/2/1
f 73/7/1 74/8/1 75/2/1 76/1/1
f 77/8/1 78/9/1 79/5/1 80/2/1

