# Tiled2Unity generated file. Do not modify by hand.
# Wavefront file for 'level_select_mesh_0007.obj'

# Vertices (Count = 432)
v -512 -576 0
v -544 -576 0
v -544 -544 0
v -512 -544 0
v -544 -576 0
v -576 -576 0
v -576 -544 0
v -544 -544 0
v -576 -576 0
v -608 -576 0
v -608 -544 0
v -576 -544 0
v -608 -576 0
v -640 -576 0
v -640 -544 0
v -608 -544 0
v -640 -576 0
v -672 -576 0
v -672 -544 0
v -640 -544 0
v -672 -576 0
v -704 -576 0
v -704 -544 0
v -672 -544 0
v -704 -576 0
v -736 -576 0
v -736 -544 0
v -704 -544 0
v -736 -576 0
v -768 -576 0
v -768 -544 0
v -736 -544 0
v -768 -576 0
v -800 -576 0
v -800 -544 0
v -768 -544 0
v -800 -576 0
v -832 -576 0
v -832 -544 0
v -800 -544 0
v -832 -576 0
v -864 -576 0
v -864 -544 0
v -832 -544 0
v -864 -576 0
v -896 -576 0
v -896 -544 0
v -864 -544 0
v -896 -576 0
v -928 -576 0
v -928 -544 0
v -896 -544 0
v -928 -576 0
v -960 -576 0
v -960 -544 0
v -928 -544 0
v -960 -576 0
v -992 -576 0
v -992 -544 0
v -960 -544 0
v -992 -576 0
v -1024 -576 0
v -1024 -544 0
v -992 -544 0
v -1024 -576 0
v -1056 -576 0
v -1056 -544 0
v -1024 -544 0
v -1056 -576 0
v -1088 -576 0
v -1088 -544 0
v -1056 -544 0
v -1088 -576 0
v -1120 -576 0
v -1120 -544 0
v -1088 -544 0
v -1120 -576 0
v -1152 -576 0
v -1152 -544 0
v -1120 -544 0
v -1152 -576 0
v -1184 -576 0
v -1184 -544 0
v -1152 -544 0
v -1184 -576 0
v -1216 -576 0
v -1216 -544 0
v -1184 -544 0
v -1216 -576 0
v -1248 -576 0
v -1248 -544 0
v -1216 -544 0
v -1248 -576 0
v -1280 -576 0
v -1280 -544 0
v -1248 -544 0
v -1280 -576 0
v -1312 -576 0
v -1312 -544 0
v -1280 -544 0
v -1312 -576 0
v -1344 -576 0
v -1344 -544 0
v -1312 -544 0
v -1344 -576 0
v -1376 -576 0
v -1376 -544 0
v -1344 -544 0
v -1376 -576 0
v -1408 -576 0
v -1408 -544 0
v -1376 -544 0
v -1408 -576 0
v -1440 -576 0
v -1440 -544 0
v -1408 -544 0
v -1440 -576 0
v -1472 -576 0
v -1472 -544 0
v -1440 -544 0
v -1472 -576 0
v -1504 -576 0
v -1504 -544 0
v -1472 -544 0
v -1504 -576 0
v -1536 -576 0
v -1536 -544 0
v -1504 -544 0
v -1536 -576 0
v -1568 -576 0
v -1568 -544 0
v -1536 -544 0
v -1568 -576 0
v -1600 -576 0
v -1600 -544 0
v -1568 -544 0
v -1600 -576 0
v -1632 -576 0
v -1632 -544 0
v -1600 -544 0
v -1632 -576 0
v -1664 -576 0
v -1664 -544 0
v -1632 -544 0
v -1664 -576 0
v -1696 -576 0
v -1696 -544 0
v -1664 -544 0
v -1696 -576 0
v -1728 -576 0
v -1728 -544 0
v -1696 -544 0
v -1728 -576 0
v -1760 -576 0
v -1760 -544 0
v -1728 -544 0
v -1760 -576 0
v -1792 -576 0
v -1792 -544 0
v -1760 -544 0
v -1792 -576 0
v -1824 -576 0
v -1824 -544 0
v -1792 -544 0
v -1824 -576 0
v -1856 -576 0
v -1856 -544 0
v -1824 -544 0
v -1856 -576 0
v -1888 -576 0
v -1888 -544 0
v -1856 -544 0
v -1888 -576 0
v -1920 -576 0
v -1920 -544 0
v -1888 -544 0
v -1920 -576 0
v -1952 -576 0
v -1952 -544 0
v -1920 -544 0
v -1952 -576 0
v -1984 -576 0
v -1984 -544 0
v -1952 -544 0
v -1984 -576 0
v -2016 -576 0
v -2016 -544 0
v -1984 -544 0
v -2016 -576 0
v -2048 -576 0
v -2048 -544 0
v -2016 -544 0
v -2048 -576 0
v -2080 -576 0
v -2080 -544 0
v -2048 -544 0
v -2080 -576 0
v -2112 -576 0
v -2112 -544 0
v -2080 -544 0
v -2112 -576 0
v -2144 -576 0
v -2144 -544 0
v -2112 -544 0
v -2144 -576 0
v -2176 -576 0
v -2176 -544 0
v -2144 -544 0
v -2176 -576 0
v -2208 -576 0
v -2208 -544 0
v -2176 -544 0
v -2208 -576 0
v -2240 -576 0
v -2240 -544 0
v -2208 -544 0
v -512 -608 0
v -544 -608 0
v -544 -576 0
v -512 -576 0
v -544 -608 0
v -576 -608 0
v -576 -576 0
v -544 -576 0
v -576 -608 0
v -608 -608 0
v -608 -576 0
v -576 -576 0
v -608 -608 0
v -640 -608 0
v -640 -576 0
v -608 -576 0
v -640 -608 0
v -672 -608 0
v -672 -576 0
v -640 -576 0
v -672 -608 0
v -704 -608 0
v -704 -576 0
v -672 -576 0
v -704 -608 0
v -736 -608 0
v -736 -576 0
v -704 -576 0
v -736 -608 0
v -768 -608 0
v -768 -576 0
v -736 -576 0
v -768 -608 0
v -800 -608 0
v -800 -576 0
v -768 -576 0
v -800 -608 0
v -832 -608 0
v -832 -576 0
v -800 -576 0
v -832 -608 0
v -864 -608 0
v -864 -576 0
v -832 -576 0
v -864 -608 0
v -896 -608 0
v -896 -576 0
v -864 -576 0
v -896 -608 0
v -928 -608 0
v -928 -576 0
v -896 -576 0
v -928 -608 0
v -960 -608 0
v -960 -576 0
v -928 -576 0
v -960 -608 0
v -992 -608 0
v -992 -576 0
v -960 -576 0
v -992 -608 0
v -1024 -608 0
v -1024 -576 0
v -992 -576 0
v -1024 -608 0
v -1056 -608 0
v -1056 -576 0
v -1024 -576 0
v -1056 -608 0
v -1088 -608 0
v -1088 -576 0
v -1056 -576 0
v -1088 -608 0
v -1120 -608 0
v -1120 -576 0
v -1088 -576 0
v -1120 -608 0
v -1152 -608 0
v -1152 -576 0
v -1120 -576 0
v -1152 -608 0
v -1184 -608 0
v -1184 -576 0
v -1152 -576 0
v -1184 -608 0
v -1216 -608 0
v -1216 -576 0
v -1184 -576 0
v -1216 -608 0
v -1248 -608 0
v -1248 -576 0
v -1216 -576 0
v -1248 -608 0
v -1280 -608 0
v -1280 -576 0
v -1248 -576 0
v -1280 -608 0
v -1312 -608 0
v -1312 -576 0
v -1280 -576 0
v -1312 -608 0
v -1344 -608 0
v -1344 -576 0
v -1312 -576 0
v -1344 -608 0
v -1376 -608 0
v -1376 -576 0
v -1344 -576 0
v -1376 -608 0
v -1408 -608 0
v -1408 -576 0
v -1376 -576 0
v -1408 -608 0
v -1440 -608 0
v -1440 -576 0
v -1408 -576 0
v -1440 -608 0
v -1472 -608 0
v -1472 -576 0
v -1440 -576 0
v -1472 -608 0
v -1504 -608 0
v -1504 -576 0
v -1472 -576 0
v -1504 -608 0
v -1536 -608 0
v -1536 -576 0
v -1504 -576 0
v -1536 -608 0
v -1568 -608 0
v -1568 -576 0
v -1536 -576 0
v -1568 -608 0
v -1600 -608 0
v -1600 -576 0
v -1568 -576 0
v -1600 -608 0
v -1632 -608 0
v -1632 -576 0
v -1600 -576 0
v -1632 -608 0
v -1664 -608 0
v -1664 -576 0
v -1632 -576 0
v -1664 -608 0
v -1696 -608 0
v -1696 -576 0
v -1664 -576 0
v -1696 -608 0
v -1728 -608 0
v -1728 -576 0
v -1696 -576 0
v -1728 -608 0
v -1760 -608 0
v -1760 -576 0
v -1728 -576 0
v -1760 -608 0
v -1792 -608 0
v -1792 -576 0
v -1760 -576 0
v -1792 -608 0
v -1824 -608 0
v -1824 -576 0
v -1792 -576 0
v -1824 -608 0
v -1856 -608 0
v -1856 -576 0
v -1824 -576 0
v -1856 -608 0
v -1888 -608 0
v -1888 -576 0
v -1856 -576 0
v -1888 -608 0
v -1920 -608 0
v -1920 -576 0
v -1888 -576 0
v -1920 -608 0
v -1952 -608 0
v -1952 -576 0
v -1920 -576 0
v -1952 -608 0
v -1984 -608 0
v -1984 -576 0
v -1952 -576 0
v -1984 -608 0
v -2016 -608 0
v -2016 -576 0
v -1984 -576 0
v -2016 -608 0
v -2048 -608 0
v -2048 -576 0
v -2016 -576 0
v -2048 -608 0
v -2080 -608 0
v -2080 -576 0
v -2048 -576 0
v -2080 -608 0
v -2112 -608 0
v -2112 -576 0
v -2080 -576 0
v -2112 -608 0
v -2144 -608 0
v -2144 -576 0
v -2112 -576 0
v -2144 -608 0
v -2176 -608 0
v -2176 -576 0
v -2144 -576 0
v -2176 -608 0
v -2208 -608 0
v -2208 -576 0
v -2176 -576 0
v -2208 -608 0
v -2240 -608 0
v -2240 -576 0
v -2208 -576 0

# Texture cooridinates (Count = 9)
vt 0 0.5
vt 0.5 0.5
vt 0.5 1
vt 0 1
vt 1 0.5
vt 1 1
vt 0 0
vt 0.5 0
vt 1 0

# Normal
vn 0 0 -1

# Mesh description
g level_select_mesh_0007

# Faces
f 1/1/1 2/2/1 3/3/1 4/4/1
f 5/2/1 6/5/1 7/6/1 8/3/1
f 9/1/1 10/2/1 11/3/1 12/4/1
f 13/2/1 14/5/1 15/6/1 16/3/1
f 17/1/1 18/2/1 19/3/1 20/4/1
f 21/2/1 22/5/1 23/6/1 24/3/1
f 25/1/1 26/2/1 27/3/1 28/4/1
f 29/2/1 30/5/1 31/6/1 32/3/1
f 33/1/1 34/2/1 35/3/1 36/4/1
f 37/2/1 38/5/1 39/6/1 40/3/1
f 41/1/1 42/2/1 43/3/1 44/4/1
f 45/2/1 46/5/1 47/6/1 48/3/1
f 49/1/1 50/2/1 51/3/1 52/4/1
f 53/2/1 54/5/1 55/6/1 56/3/1
f 57/1/1 58/2/1 59/3/1 60/4/1
f 61/2/1 62/5/1 63/6/1 64/3/1
f 65/1/1 66/2/1 67/3/1 68/4/1
f 69/1/1 70/2/1 71/3/1 72/4/1
f 73/1/1 74/2/1 75/3/1 76/4/1
f 77/1/1 78/2/1 79/3/1 80/4/1
f 81/1/1 82/2/1 83/3/1 84/4/1
f 85/1/1 86/2/1 87/3/1 88/4/1
f 89/1/1 90/2/1 91/3/1 92/4/1
f 93/1/1 94/2/1 95/3/1 96/4/1
f 97/1/1 98/2/1 99/3/1 100/4/1
f 101/1/1 102/2/1 103/3/1 104/4/1
f 105/1/1 106/2/1 107/3/1 108/4/1
f 109/1/1 110/2/1 111/3/1 112/4/1
f 113/1/1 114/2/1 115/3/1 116/4/1
f 117/1/1 118/2/1 119/3/1 120/4/1
f 121/1/1 122/2/1 123/3/1 124/4/1
f 125/1/1 126/2/1 127/3/1 128/4/1
f 129/1/1 130/2/1 131/3/1 132/4/1
f 133/1/1 134/2/1 135/3/1 136/4/1
f 137/1/1 138/2/1 139/3/1 140/4/1
f 141/1/1 142/2/1 143/3/1 144/4/1
f 145/1/1 146/2/1 147/3/1 148/4/1
f 149/2/1 150/5/1 151/6/1 152/3/1
f 153/1/1 154/2/1 155/3/1 156/4/1
f 157/2/1 158/5/1 159/6/1 160/3/1
f 161/1/1 162/2/1 163/3/1 164/4/1
f 165/2/1 166/5/1 167/6/1 168/3/1
f 169/1/1 170/2/1 171/3/1 172/4/1
f 173/2/1 174/5/1 175/6/1 176/3/1
f 177/1/1 178/2/1 179/3/1 180/4/1
f 181/2/1 182/5/1 183/6/1 184/3/1
f 185/1/1 186/2/1 187/3/1 188/4/1
f 189/2/1 190/5/1 191/6/1 192/3/1
f 193/1/1 194/2/1 195/3/1 196/4/1
f 197/2/1 198/5/1 199/6/1 200/3/1
f 201/1/1 202/2/1 203/3/1 204/4/1
f 205/2/1 206/5/1 207/6/1 208/3/1
f 209/1/1 210/2/1 211/3/1 212/4/1
f 213/2/1 214/5/1 215/6/1 216/3/1
f 217/7/1 218/8/1 219/2/1 220/1/1
f 221/8/1 222/9/1 223/5/1 224/2/1
f 225/7/1 226/8/1 227/2/1 228/1/1
f 229/8/1 230/9/1 231/5/1 232/2/1
f 233/7/1 234/8/1 235/2/1 236/1/1
f 237/8/1 238/9/1 239/5/1 240/2/1
f 241/7/1 242/8/1 243/2/1 244/1/1
f 245/8/1 246/9/1 247/5/1 248/2/1
f 249/7/1 250/8/1 251/2/1 252/1/1
f 253/8/1 254/9/1 255/5/1 256/2/1
f 257/7/1 258/8/1 259/2/1 260/1/1
f 261/8/1 262/9/1 263/5/1 264/2/1
f 265/7/1 266/8/1 267/2/1 268/1/1
f 269/8/1 270/9/1 271/5/1 272/2/1
f 273/7/1 274/8/1 275/2/1 276/1/1
f 277/8/1 278/9/1 279/5/1 280/2/1
f 281/7/1 282/8/1 283/2/1 284/1/1
f 285/7/1 286/8/1 287/2/1 288/1/1
f 289/7/1 290/8/1 291/2/1 292/1/1
f 293/7/1 294/8/1 295/2/1 296/1/1
f 297/7/1 298/8/1 299/2/1 300/1/1
f 301/7/1 302/8/1 303/2/1 304/1/1
f 305/7/1 306/8/1 307/2/1 308/1/1
f 309/7/1 310/8/1 311/2/1 312/1/1
f 313/7/1 314/8/1 315/2/1 316/1/1
f 317/7/1 318/8/1 319/2/1 320/1/1
f 321/7/1 322/8/1 323/2/1 324/1/1
f 325/7/1 326/8/1 327/2/1 328/1/1
f 329/7/1 330/8/1 331/2/1 332/1/1
f 333/7/1 334/8/1 335/2/1 336/1/1
f 337/7/1 338/8/1 339/2/1 340/1/1
f 341/7/1 342/8/1 343/2/1 344/1/1
f 345/7/1 346/8/1 347/2/1 348/1/1
f 349/7/1 350/8/1 351/2/1 352/1/1
f 353/7/1 354/8/1 355/2/1 356/1/1
f 357/7/1 358/8/1 359/2/1 360/1/1
f 361/7/1 362/8/1 363/2/1 364/1/1
f 365/8/1 366/9/1 367/5/1 368/2/1
f 369/7/1 370/8/1 371/2/1 372/1/1
f 373/8/1 374/9/1 375/5/1 376/2/1
f 377/7/1 378/8/1 379/2/1 380/1/1
f 381/8/1 382/9/1 383/5/1 384/2/1
f 385/7/1 386/8/1 387/2/1 388/1/1
f 389/8/1 390/9/1 391/5/1 392/2/1
f 393/7/1 394/8/1 395/2/1 396/1/1
f 397/8/1 398/9/1 399/5/1 400/2/1
f 401/7/1 402/8/1 403/2/1 404/1/1
f 405/8/1 406/9/1 407/5/1 408/2/1
f 409/7/1 410/8/1 411/2/1 412/1/1
f 413/8/1 414/9/1 415/5/1 416/2/1
f 417/7/1 418/8/1 419/2/1 420/1/1
f 421/8/1 422/9/1 423/5/1 424/2/1
f 425/7/1 426/8/1 427/2/1 428/1/1
f 429/8/1 430/9/1 431/5/1 432/2/1

