# Tiled2Unity generated file. Do not modify by hand.
# Wavefront file for 'level_select_mesh_0002.obj'

# Vertices (Count = 56)
v -640 -448 0
v -672 -448 0
v -672 -416 0
v -640 -416 0
v -672 -448 0
v -704 -448 0
v -704 -416 0
v -672 -416 0
v -704 -448 0
v -736 -448 0
v -736 -416 0
v -704 -416 0
v -736 -448 0
v -768 -448 0
v -768 -416 0
v -736 -416 0
v -768 -448 0
v -800 -448 0
v -800 -416 0
v -768 -416 0
v -800 -448 0
v -832 -448 0
v -832 -416 0
v -800 -416 0
v -832 -448 0
v -864 -448 0
v -864 -416 0
v -832 -416 0
v -640 -480 0
v -672 -480 0
v -672 -448 0
v -640 -448 0
v -672 -480 0
v -704 -480 0
v -704 -448 0
v -672 -448 0
v -704 -480 0
v -736 -480 0
v -736 -448 0
v -704 -448 0
v -736 -480 0
v -768 -480 0
v -768 -448 0
v -736 -448 0
v -768 -480 0
v -800 -480 0
v -800 -448 0
v -768 -448 0
v -800 -480 0
v -832 -480 0
v -832 -448 0
v -800 -448 0
v -832 -480 0
v -864 -480 0
v -864 -448 0
v -832 -448 0

# Texture cooridinates (Count = 24)
vt 0 0.125
vt 0.125 0.125
vt 0.125 0.25
vt 0 0.25
vt 0.25 0.125
vt 0.25 0.25
vt 0.375 0.125
vt 0.375 0.25
vt 0.5 0.125
vt 0.5 0.25
vt 0.625 0.125
vt 0.625 0.25
vt 0.75 0.125
vt 0.75 0.25
vt 0.875 0.125
vt 0.875 0.25
vt 0 0
vt 0.125 0
vt 0.25 0
vt 0.375 0
vt 0.5 0
vt 0.625 0
vt 0.75 0
vt 0.875 0

# Normal
vn 0 0 -1

# Mesh description
g level_select_mesh_0002

# Faces
f 1/1/1 2/2/1 3/3/1 4/4/1
f 5/2/1 6/5/1 7/6/1 8/3/1
f 9/5/1 10/7/1 11/8/1 12/6/1
f 13/7/1 14/9/1 15/10/1 16/8/1
f 17/9/1 18/11/1 19/12/1 20/10/1
f 21/11/1 22/13/1 23/14/1 24/12/1
f 25/13/1 26/15/1 27/16/1 28/14/1
f 29/17/1 30/18/1 31/2/1 32/1/1
f 33/18/1 34/19/1 35/5/1 36/2/1
f 37/19/1 38/20/1 39/7/1 40/5/1
f 41/20/1 42/21/1 43/9/1 44/7/1
f 45/21/1 46/22/1 47/11/1 48/9/1
f 49/22/1 50/23/1 51/13/1 52/11/1
f 53/23/1 54/24/1 55/15/1 56/13/1

