# Tiled2Unity generated file. Do not modify by hand.
# Wavefront file for 'level_select_mesh_0005.obj'

# Vertices (Count = 112)
v -768 -480 0
v -800 -480 0
v -800 -448 0
v -768 -448 0
v -800 -480 0
v -832 -480 0
v -832 -448 0
v -800 -448 0
v -832 -480 0
v -864 -480 0
v -864 -448 0
v -832 -448 0
v -864 -480 0
v -896 -480 0
v -896 -448 0
v -864 -448 0
v -896 -480 0
v -928 -480 0
v -928 -448 0
v -896 -448 0
v -928 -480 0
v -960 -480 0
v -960 -448 0
v -928 -448 0
v -992 -480 0
v -1024 -480 0
v -1024 -448 0
v -992 -448 0
v -1024 -480 0
v -1056 -480 0
v -1056 -448 0
v -1024 -448 0
v -1088 -480 0
v -1120 -480 0
v -1120 -448 0
v -1088 -448 0
v -1120 -480 0
v -1152 -480 0
v -1152 -448 0
v -1120 -448 0
v -1152 -480 0
v -1184 -480 0
v -1184 -448 0
v -1152 -448 0
v -1184 -480 0
v -1216 -480 0
v -1216 -448 0
v -1184 -448 0
v -1216 -480 0
v -1248 -480 0
v -1248 -448 0
v -1216 -448 0
v -1248 -480 0
v -1280 -480 0
v -1280 -448 0
v -1248 -448 0
v -1280 -480 0
v -1312 -480 0
v -1312 -448 0
v -1280 -448 0
v -1312 -480 0
v -1344 -480 0
v -1344 -448 0
v -1312 -448 0
v -1344 -480 0
v -1376 -480 0
v -1376 -448 0
v -1344 -448 0
v -1376 -480 0
v -1408 -480 0
v -1408 -448 0
v -1376 -448 0
v -1408 -480 0
v -1440 -480 0
v -1440 -448 0
v -1408 -448 0
v -1440 -480 0
v -1472 -480 0
v -1472 -448 0
v -1440 -448 0
v -1472 -480 0
v -1504 -480 0
v -1504 -448 0
v -1472 -448 0
v -1504 -480 0
v -1536 -480 0
v -1536 -448 0
v -1504 -448 0
v -1536 -480 0
v -1568 -480 0
v -1568 -448 0
v -1536 -448 0
v -1568 -480 0
v -1600 -480 0
v -1600 -448 0
v -1568 -448 0
v -1600 -480 0
v -1632 -480 0
v -1632 -448 0
v -1600 -448 0
v -1632 -480 0
v -1664 -480 0
v -1664 -448 0
v -1632 -448 0
v -1664 -480 0
v -1696 -480 0
v -1696 -448 0
v -1664 -448 0
v -1696 -480 0
v -1728 -480 0
v -1728 -448 0
v -1696 -448 0

# Texture cooridinates (Count = 6)
vt 0 0
vt 0.5 0
vt 0.5 0.5
vt 0 0.5
vt 1 0
vt 1 0.5

# Normal
vn 0 0 -1

# Mesh description
g level_select_mesh_0005

# Faces
f 1/1/1 2/2/1 3/3/1 4/4/1
f 5/1/1 6/2/1 7/3/1 8/4/1
f 9/1/1 10/2/1 11/3/1 12/4/1
f 13/1/1 14/2/1 15/3/1 16/4/1
f 17/1/1 18/2/1 19/3/1 20/4/1
f 21/1/1 22/2/1 23/3/1 24/4/1
f 25/2/1 26/5/1 27/6/1 28/3/1
f 29/1/1 30/2/1 31/3/1 32/4/1
f 33/2/1 34/5/1 35/6/1 36/3/1
f 37/2/1 38/5/1 39/6/1 40/3/1
f 41/2/1 42/5/1 43/6/1 44/3/1
f 45/2/1 46/5/1 47/6/1 48/3/1
f 49/1/1 50/2/1 51/3/1 52/4/1
f 53/1/1 54/2/1 55/3/1 56/4/1
f 57/1/1 58/2/1 59/3/1 60/4/1
f 61/1/1 62/2/1 63/3/1 64/4/1
f 65/1/1 66/2/1 67/3/1 68/4/1
f 69/1/1 70/2/1 71/3/1 72/4/1
f 73/1/1 74/2/1 75/3/1 76/4/1
f 77/1/1 78/2/1 79/3/1 80/4/1
f 81/1/1 82/2/1 83/3/1 84/4/1
f 85/1/1 86/2/1 87/3/1 88/4/1
f 89/1/1 90/2/1 91/3/1 92/4/1
f 93/1/1 94/2/1 95/3/1 96/4/1
f 97/1/1 98/2/1 99/3/1 100/4/1
f 101/1/1 102/2/1 103/3/1 104/4/1
f 105/1/1 106/2/1 107/3/1 108/4/1
f 109/1/1 110/2/1 111/3/1 112/4/1

