# Tiled2Unity generated file. Do not modify by hand.
# Wavefront file for 'level_select_mesh_0001.obj'

# Vertices (Count = 112)
v -864 -384 0
v -896 -384 0
v -896 -352 0
v -864 -352 0
v -896 -384 0
v -928 -384 0
v -928 -352 0
v -896 -352 0
v -928 -384 0
v -960 -384 0
v -960 -352 0
v -928 -352 0
v -960 -384 0
v -992 -384 0
v -992 -352 0
v -960 -352 0
v -992 -384 0
v -1024 -384 0
v -1024 -352 0
v -992 -352 0
v -1024 -384 0
v -1056 -384 0
v -1056 -352 0
v -1024 -352 0
v -1056 -384 0
v -1088 -384 0
v -1088 -352 0
v -1056 -352 0
v -864 -416 0
v -896 -416 0
v -896 -384 0
v -864 -384 0
v -896 -416 0
v -928 -416 0
v -928 -384 0
v -896 -384 0
v -928 -416 0
v -960 -416 0
v -960 -384 0
v -928 -384 0
v -960 -416 0
v -992 -416 0
v -992 -384 0
v -960 -384 0
v -992 -416 0
v -1024 -416 0
v -1024 -384 0
v -992 -384 0
v -1024 -416 0
v -1056 -416 0
v -1056 -384 0
v -1024 -384 0
v -1056 -416 0
v -1088 -416 0
v -1088 -384 0
v -1056 -384 0
v -864 -448 0
v -896 -448 0
v -896 -416 0
v -864 -416 0
v -896 -448 0
v -928 -448 0
v -928 -416 0
v -896 -416 0
v -928 -448 0
v -960 -448 0
v -960 -416 0
v -928 -416 0
v -960 -448 0
v -992 -448 0
v -992 -416 0
v -960 -416 0
v -992 -448 0
v -1024 -448 0
v -1024 -416 0
v -992 -416 0
v -1024 -448 0
v -1056 -448 0
v -1056 -416 0
v -1024 -416 0
v -1056 -448 0
v -1088 -448 0
v -1088 -416 0
v -1056 -416 0
v -864 -480 0
v -896 -480 0
v -896 -448 0
v -864 -448 0
v -896 -480 0
v -928 -480 0
v -928 -448 0
v -896 -448 0
v -928 -480 0
v -960 -480 0
v -960 -448 0
v -928 -448 0
v -960 -480 0
v -992 -480 0
v -992 -448 0
v -960 -448 0
v -992 -480 0
v -1024 -480 0
v -1024 -448 0
v -992 -448 0
v -1024 -480 0
v -1056 -480 0
v -1056 -448 0
v -1024 -448 0
v -1056 -480 0
v -1088 -480 0
v -1088 -448 0
v -1056 -448 0

# Texture cooridinates (Count = 40)
vt 0 0.375
vt 0.125 0.375
vt 0.125 0.5
vt 0 0.5
vt 0.25 0.375
vt 0.25 0.5
vt 0.375 0.375
vt 0.375 0.5
vt 0.5 0.375
vt 0.5 0.5
vt 0.625 0.375
vt 0.625 0.5
vt 0.75 0.375
vt 0.75 0.5
vt 0.875 0.375
vt 0.875 0.5
vt 0 0.25
vt 0.125 0.25
vt 0.25 0.25
vt 0.375 0.25
vt 0.5 0.25
vt 0.625 0.25
vt 0.75 0.25
vt 0.875 0.25
vt 0 0.125
vt 0.125 0.125
vt 0.25 0.125
vt 0.375 0.125
vt 0.5 0.125
vt 0.625 0.125
vt 0.75 0.125
vt 0.875 0.125
vt 0 0
vt 0.125 0
vt 0.25 0
vt 0.375 0
vt 0.5 0
vt 0.625 0
vt 0.75 0
vt 0.875 0

# Normal
vn 0 0 -1

# Mesh description
g level_select_mesh_0001

# Faces
f 1/1/1 2/2/1 3/3/1 4/4/1
f 5/2/1 6/5/1 7/6/1 8/3/1
f 9/5/1 10/7/1 11/8/1 12/6/1
f 13/7/1 14/9/1 15/10/1 16/8/1
f 17/9/1 18/11/1 19/12/1 20/10/1
f 21/11/1 22/13/1 23/14/1 24/12/1
f 25/13/1 26/15/1 27/16/1 28/14/1
f 29/17/1 30/18/1 31/2/1 32/1/1
f 33/18/1 34/19/1 35/5/1 36/2/1
f 37/19/1 38/20/1 39/7/1 40/5/1
f 41/20/1 42/21/1 43/9/1 44/7/1
f 45/21/1 46/22/1 47/11/1 48/9/1
f 49/22/1 50/23/1 51/13/1 52/11/1
f 53/23/1 54/24/1 55/15/1 56/13/1
f 57/25/1 58/26/1 59/18/1 60/17/1
f 61/26/1 62/27/1 63/19/1 64/18/1
f 65/27/1 66/28/1 67/20/1 68/19/1
f 69/28/1 70/29/1 71/21/1 72/20/1
f 73/29/1 74/30/1 75/22/1 76/21/1
f 77/30/1 78/31/1 79/23/1 80/22/1
f 81/31/1 82/32/1 83/24/1 84/23/1
f 85/33/1 86/34/1 87/26/1 88/25/1
f 89/34/1 90/35/1 91/27/1 92/26/1
f 93/35/1 94/36/1 95/28/1 96/27/1
f 97/36/1 98/37/1 99/29/1 100/28/1
f 101/37/1 102/38/1 103/30/1 104/29/1
f 105/38/1 106/39/1 107/31/1 108/30/1
f 109/39/1 110/40/1 111/32/1 112/31/1

