# Tiled2Unity generated file. Do not modify by hand.
# Wavefront file for 'level_3_mesh_0003.obj'

# Vertices (Count = 408)
v -8 -3 0
v -8.5 -3 0
v -8.5 -2.5 0
v -8 -2.5 0
v -8.5 -3 0
v -9 -3 0
v -9 -2.5 0
v -8.5 -2.5 0
v -7 -3.5 0
v -7.5 -3.5 0
v -7.5 -3 0
v -7 -3 0
v -8 -3.5 0
v -8.5 -3.5 0
v -8.5 -3 0
v -8 -3 0
v -8.5 -3.5 0
v -9 -3.5 0
v -9 -3 0
v -8.5 -3 0
v -9.5 -3.5 0
v -10 -3.5 0
v -10 -3 0
v -9.5 -3 0
v -7 -4 0
v -7.5 -4 0
v -7.5 -3.5 0
v -7 -3.5 0
v -8 -4 0
v -8.5 -4 0
v -8.5 -3.5 0
v -8 -3.5 0
v -8.5 -4 0
v -9 -4 0
v -9 -3.5 0
v -8.5 -3.5 0
v -9.5 -4 0
v -10 -4 0
v -10 -3.5 0
v -9.5 -3.5 0
v -14.5 -4.5 0
v -15 -4.5 0
v -15 -4 0
v -14.5 -4 0
v -15 -4.5 0
v -15.5 -4.5 0
v -15.5 -4 0
v -15 -4 0
v -16 -4.5 0
v -16.5 -4.5 0
v -16.5 -4 0
v -16 -4 0
v -16.5 -4.5 0
v -17 -4.5 0
v -17 -4 0
v -16.5 -4 0
v -17 -4.5 0
v -17.5 -4.5 0
v -17.5 -4 0
v -17 -4 0
v -17.5 -4.5 0
v -18 -4.5 0
v -18 -4 0
v -17.5 -4 0
v -14.5 -5 0
v -15 -5 0
v -15 -4.5 0
v -14.5 -4.5 0
v -15 -5 0
v -15.5 -5 0
v -15.5 -4.5 0
v -15 -4.5 0
v -16 -5 0
v -16.5 -5 0
v -16.5 -4.5 0
v -16 -4.5 0
v -16.5 -5 0
v -17 -5 0
v -17 -4.5 0
v -16.5 -4.5 0
v -17 -5 0
v -17.5 -5 0
v -17.5 -4.5 0
v -17 -4.5 0
v -17.5 -5 0
v -18 -5 0
v -18 -4.5 0
v -17.5 -4.5 0
v -14.5 -5.5 0
v -15 -5.5 0
v -15 -5 0
v -14.5 -5 0
v -15 -5.5 0
v -15.5 -5.5 0
v -15.5 -5 0
v -15 -5 0
v -16 -5.5 0
v -16.5 -5.5 0
v -16.5 -5 0
v -16 -5 0
v -16.5 -5.5 0
v -17 -5.5 0
v -17 -5 0
v -16.5 -5 0
v -17 -5.5 0
v -17.5 -5.5 0
v -17.5 -5 0
v -17 -5 0
v -17.5 -5.5 0
v -18 -5.5 0
v -18 -5 0
v -17.5 -5 0
v -28 -5.5 0
v -28.5 -5.5 0
v -28.5 -5 0
v -28 -5 0
v -28.5 -5.5 0
v -29 -5.5 0
v -29 -5 0
v -28.5 -5 0
v -29 -5.5 0
v -29.5 -5.5 0
v -29.5 -5 0
v -29 -5 0
v -7 -6 0
v -7.5 -6 0
v -7.5 -5.5 0
v -7 -5.5 0
v -28 -6 0
v -28.5 -6 0
v -28.5 -5.5 0
v -28 -5.5 0
v -28.5 -6 0
v -29 -6 0
v -29 -5.5 0
v -28.5 -5.5 0
v -29 -6 0
v -29.5 -6 0
v -29.5 -5.5 0
v -29 -5.5 0
v -7 -6.5 0
v -7.5 -6.5 0
v -7.5 -6 0
v -7 -6 0
v -1.5 -10 0
v -2 -10 0
v -2 -9.5 0
v -1.5 -9.5 0
v -7.5 -10 0
v -8 -10 0
v -8 -9.5 0
v -7.5 -9.5 0
v -8 -10 0
v -8.5 -10 0
v -8.5 -9.5 0
v -8 -9.5 0
v -1.5 -10.5 0
v -2 -10.5 0
v -2 -10 0
v -1.5 -10 0
v -7.5 -10.5 0
v -8 -10.5 0
v -8 -10 0
v -7.5 -10 0
v -8 -10.5 0
v -8.5 -10.5 0
v -8.5 -10 0
v -8 -10 0
v -1.5 -11 0
v -2 -11 0
v -2 -10.5 0
v -1.5 -10.5 0
v -5 -11 0
v -5.5 -11 0
v -5.5 -10.5 0
v -5 -10.5 0
v -5.5 -11 0
v -6 -11 0
v -6 -10.5 0
v -5.5 -10.5 0
v -6 -11 0
v -6.5 -11 0
v -6.5 -10.5 0
v -6 -10.5 0
v -1 -11.5 0
v -1.5 -11.5 0
v -1.5 -11 0
v -1 -11 0
v -1.5 -11.5 0
v -2 -11.5 0
v -2 -11 0
v -1.5 -11 0
v -5 -11.5 0
v -5.5 -11.5 0
v -5.5 -11 0
v -5 -11 0
v -5.5 -11.5 0
v -6 -11.5 0
v -6 -11 0
v -5.5 -11 0
v -6 -11.5 0
v -6.5 -11.5 0
v -6.5 -11 0
v -6 -11 0
v -1 -12 0
v -1.5 -12 0
v -1.5 -11.5 0
v -1 -11.5 0
v -1.5 -12 0
v -2 -12 0
v -2 -11.5 0
v -1.5 -11.5 0
v -6 -12 0
v -6.5 -12 0
v -6.5 -11.5 0
v -6 -11.5 0
v -19 -12 0
v -19.5 -12 0
v -19.5 -11.5 0
v -19 -11.5 0
v -20 -12 0
v -20.5 -12 0
v -20.5 -11.5 0
v -20 -11.5 0
v -21 -12 0
v -21.5 -12 0
v -21.5 -11.5 0
v -21 -11.5 0
v -5.5 -12.5 0
v -6 -12.5 0
v -6 -12 0
v -5.5 -12 0
v -6 -12.5 0
v -6.5 -12.5 0
v -6.5 -12 0
v -6 -12 0
v -19 -12.5 0
v -19.5 -12.5 0
v -19.5 -12 0
v -19 -12 0
v -20 -12.5 0
v -20.5 -12.5 0
v -20.5 -12 0
v -20 -12 0
v -21 -12.5 0
v -21.5 -12.5 0
v -21.5 -12 0
v -21 -12 0
v -3 -13 0
v -3.5 -13 0
v -3.5 -12.5 0
v -3 -12.5 0
v -19 -13 0
v -19.5 -13 0
v -19.5 -12.5 0
v -19 -12.5 0
v -20 -13 0
v -20.5 -13 0
v -20.5 -12.5 0
v -20 -12.5 0
v -21 -13 0
v -21.5 -13 0
v -21.5 -12.5 0
v -21 -12.5 0
v -1 -13.5 0
v -1.5 -13.5 0
v -1.5 -13 0
v -1 -13 0
v -2 -13.5 0
v -2.5 -13.5 0
v -2.5 -13 0
v -2 -13 0
v -2.5 -13.5 0
v -3 -13.5 0
v -3 -13 0
v -2.5 -13 0
v -3 -13.5 0
v -3.5 -13.5 0
v -3.5 -13 0
v -3 -13 0
v -5.5 -13.5 0
v -6 -13.5 0
v -6 -13 0
v -5.5 -13 0
v -7 -13.5 0
v -7.5 -13.5 0
v -7.5 -13 0
v -7 -13 0
v -9 -13.5 0
v -9.5 -13.5 0
v -9.5 -13 0
v -9 -13 0
v -9.5 -13.5 0
v -10 -13.5 0
v -10 -13 0
v -9.5 -13 0
v -10 -13.5 0
v -10.5 -13.5 0
v -10.5 -13 0
v -10 -13 0
v -10.5 -13.5 0
v -11 -13.5 0
v -11 -13 0
v -10.5 -13 0
v -11 -13.5 0
v -11.5 -13.5 0
v -11.5 -13 0
v -11 -13 0
v -11.5 -13.5 0
v -12 -13.5 0
v -12 -13 0
v -11.5 -13 0
v -19 -13.5 0
v -19.5 -13.5 0
v -19.5 -13 0
v -19 -13 0
v -20 -13.5 0
v -20.5 -13.5 0
v -20.5 -13 0
v -20 -13 0
v -21 -13.5 0
v -21.5 -13.5 0
v -21.5 -13 0
v -21 -13 0
v -1.5 -14 0
v -2 -14 0
v -2 -13.5 0
v -1.5 -13.5 0
v -3 -14 0
v -3.5 -14 0
v -3.5 -13.5 0
v -3 -13.5 0
v -5.5 -14 0
v -6 -14 0
v -6 -13.5 0
v -5.5 -13.5 0
v -6.5 -14 0
v -7 -14 0
v -7 -13.5 0
v -6.5 -13.5 0
v -13.5 -14 0
v -14 -14 0
v -14 -13.5 0
v -13.5 -13.5 0
v -14 -14 0
v -14.5 -14 0
v -14.5 -13.5 0
v -14 -13.5 0
v -26.5 -14 0
v -27 -14 0
v -27 -13.5 0
v -26.5 -13.5 0
v -27 -14 0
v -27.5 -14 0
v -27.5 -13.5 0
v -27 -13.5 0
v -2.5 -14.5 0
v -3 -14.5 0
v -3 -14 0
v -2.5 -14 0
v -5.5 -14.5 0
v -6 -14.5 0
v -6 -14 0
v -5.5 -14 0
v -6 -14.5 0
v -6.5 -14.5 0
v -6.5 -14 0
v -6 -14 0
v -7 -14.5 0
v -7.5 -14.5 0
v -7.5 -14 0
v -7 -14 0
v -13.5 -14.5 0
v -14 -14.5 0
v -14 -14 0
v -13.5 -14 0
v -14 -14.5 0
v -14.5 -14.5 0
v -14.5 -14 0
v -14 -14 0
v -26.5 -14.5 0
v -27 -14.5 0
v -27 -14 0
v -26.5 -14 0
v -27 -14.5 0
v -27.5 -14.5 0
v -27.5 -14 0
v -27 -14 0
v -1 -15 0
v -1.5 -15 0
v -1.5 -14.5 0
v -1 -14.5 0
v -2 -15 0
v -2.5 -15 0
v -2.5 -14.5 0
v -2 -14.5 0
v -3 -15 0
v -3.5 -15 0
v -3.5 -14.5 0
v -3 -14.5 0
v -6.5 -15 0
v -7 -15 0
v -7 -14.5 0
v -6.5 -14.5 0
v -2.5 -15.5 0
v -3 -15.5 0
v -3 -15 0
v -2.5 -15 0

# Texture cooridinates (Count = 27)
vt 0.25 0.5
vt 0.3125 0.5
vt 0.3125 0.75
vt 0.25 0.75
vt 0.3125 1
vt 0.25 1
vt 0.125 0.75
vt 0.1875 0.75
vt 0.1875 1
vt 0.125 1
vt 0 0.75
vt 0.0625 0.75
vt 0.0625 1
vt 0 1
vt 0.25 0.25
vt 0.3125 0.25
vt 0.375 0.25
vt 0.375 0.5
vt 0 0.5
vt 0.0625 0.5
vt 0.25 0
vt 0.3125 0
vt 0.375 0
vt 0 0.25
vt 0.0625 0.25
vt 0.125 0.5
vt 0.1875 0.5

# Normal
vn 0 0 -1

# Mesh description
g level_3_mesh_0003

# Faces
f 1/1/1 2/2/1 3/3/1 4/4/1
f 5/1/1 6/2/1 7/3/1 8/4/1
f 9/4/1 10/3/1 11/5/1 12/6/1
f 13/4/1 14/3/1 15/5/1 16/6/1
f 17/4/1 18/3/1 19/5/1 20/6/1
f 21/4/1 22/3/1 23/5/1 24/6/1
f 25/4/1 26/3/1 27/5/1 28/6/1
f 29/4/1 30/3/1 31/5/1 32/6/1
f 33/4/1 34/3/1 35/5/1 36/6/1
f 37/4/1 38/3/1 39/5/1 40/6/1
f 41/1/1 42/2/1 43/3/1 44/4/1
f 45/1/1 46/2/1 47/3/1 48/4/1
f 49/1/1 50/2/1 51/3/1 52/4/1
f 53/1/1 54/2/1 55/3/1 56/4/1
f 57/1/1 58/2/1 59/3/1 60/4/1
f 61/1/1 62/2/1 63/3/1 64/4/1
f 65/4/1 66/3/1 67/5/1 68/6/1
f 69/4/1 70/3/1 71/5/1 72/6/1
f 73/4/1 74/3/1 75/5/1 76/6/1
f 77/4/1 78/3/1 79/5/1 80/6/1
f 81/4/1 82/3/1 83/5/1 84/6/1
f 85/4/1 86/3/1 87/5/1 88/6/1
f 89/4/1 90/3/1 91/5/1 92/6/1
f 93/4/1 94/3/1 95/5/1 96/6/1
f 97/4/1 98/3/1 99/5/1 100/6/1
f 101/4/1 102/3/1 103/5/1 104/6/1
f 105/4/1 106/3/1 107/5/1 108/6/1
f 109/4/1 110/3/1 111/5/1 112/6/1
f 113/1/1 114/2/1 115/3/1 116/4/1
f 117/1/1 118/2/1 119/3/1 120/4/1
f 121/1/1 122/2/1 123/3/1 124/4/1
f 125/7/1 126/8/1 127/9/1 128/10/1
f 129/4/1 130/3/1 131/5/1 132/6/1
f 133/4/1 134/3/1 135/5/1 136/6/1
f 137/4/1 138/3/1 139/5/1 140/6/1
f 141/7/1 142/8/1 143/9/1 144/10/1
f 145/11/1 146/12/1 147/13/1 148/14/1
f 149/15/1 150/16/1 151/2/1 152/1/1
f 153/16/1 154/17/1 155/18/1 156/2/1
f 157/19/1 158/20/1 159/12/1 160/11/1
f 161/21/1 162/22/1 163/16/1 164/15/1
f 165/22/1 166/23/1 167/17/1 168/16/1
f 169/24/1 170/25/1 171/20/1 172/19/1
f 173/4/1 174/3/1 175/5/1 176/6/1
f 177/4/1 178/3/1 179/5/1 180/6/1
f 181/26/1 182/27/1 183/8/1 184/7/1
f 185/17/1 186/16/1 187/22/1 188/23/1
f 189/16/1 190/15/1 191/21/1 192/22/1
f 193/4/1 194/3/1 195/5/1 196/6/1
f 197/4/1 198/3/1 199/5/1 200/6/1
f 201/26/1 202/27/1 203/8/1 204/7/1
f 205/18/1 206/2/1 207/16/1 208/17/1
f 209/2/1 210/1/1 211/15/1 212/16/1
f 213/4/1 214/3/1 215/5/1 216/6/1
f 217/1/1 218/2/1 219/3/1 220/4/1
f 221/1/1 222/2/1 223/3/1 224/4/1
f 225/1/1 226/2/1 227/3/1 228/4/1
f 229/4/1 230/3/1 231/5/1 232/6/1
f 233/4/1 234/3/1 235/5/1 236/6/1
f 237/4/1 238/3/1 239/5/1 240/6/1
f 241/4/1 242/3/1 243/5/1 244/6/1
f 245/4/1 246/3/1 247/5/1 248/6/1
f 249/4/1 250/3/1 251/5/1 252/6/1
f 253/4/1 254/3/1 255/5/1 256/6/1
f 257/4/1 258/3/1 259/5/1 260/6/1
f 261/4/1 262/3/1 263/5/1 264/6/1
f 265/4/1 266/3/1 267/5/1 268/6/1
f 269/4/1 270/3/1 271/5/1 272/6/1
f 273/4/1 274/3/1 275/5/1 276/6/1
f 277/4/1 278/3/1 279/5/1 280/6/1
f 281/4/1 282/3/1 283/5/1 284/6/1
f 285/4/1 286/3/1 287/5/1 288/6/1
f 289/4/1 290/3/1 291/5/1 292/6/1
f 293/4/1 294/3/1 295/5/1 296/6/1
f 297/4/1 298/3/1 299/5/1 300/6/1
f 301/7/1 302/8/1 303/9/1 304/10/1
f 305/7/1 306/8/1 307/9/1 308/10/1
f 309/4/1 310/3/1 311/5/1 312/6/1
f 313/4/1 314/3/1 315/5/1 316/6/1
f 317/4/1 318/3/1 319/5/1 320/6/1
f 321/4/1 322/3/1 323/5/1 324/6/1
f 325/4/1 326/3/1 327/5/1 328/6/1
f 329/4/1 330/3/1 331/5/1 332/6/1
f 333/4/1 334/3/1 335/5/1 336/6/1
f 337/4/1 338/3/1 339/5/1 340/6/1
f 341/15/1 342/16/1 343/2/1 344/1/1
f 345/16/1 346/17/1 347/18/1 348/2/1
f 349/15/1 350/16/1 351/2/1 352/1/1
f 353/16/1 354/17/1 355/18/1 356/2/1
f 357/4/1 358/3/1 359/5/1 360/6/1
f 361/4/1 362/3/1 363/5/1 364/6/1
f 365/4/1 366/3/1 367/5/1 368/6/1
f 369/4/1 370/3/1 371/5/1 372/6/1
f 373/21/1 374/22/1 375/16/1 376/15/1
f 377/22/1 378/23/1 379/17/1 380/16/1
f 381/21/1 382/22/1 383/16/1 384/15/1
f 385/22/1 386/23/1 387/17/1 388/16/1
f 389/4/1 390/3/1 391/5/1 392/6/1
f 393/4/1 394/3/1 395/5/1 396/6/1
f 397/4/1 398/3/1 399/5/1 400/6/1
f 401/4/1 402/3/1 403/5/1 404/6/1
f 405/4/1 406/3/1 407/5/1 408/6/1

