# Tiled2Unity generated file. Do not modify by hand.
# Wavefront file for 'level_3_mesh_0001.obj'

# Vertices (Count = 724)
v -2 -1.5 0
v -2.5 -1.5 0
v -2.5 -1 0
v -2 -1 0
v -2.5 -1.5 0
v -3 -1.5 0
v -3 -1 0
v -2.5 -1 0
v -3 -1.5 0
v -3.5 -1.5 0
v -3.5 -1 0
v -3 -1 0
v -3.5 -1.5 0
v -4 -1.5 0
v -4 -1 0
v -3.5 -1 0
v -4 -1.5 0
v -4.5 -1.5 0
v -4.5 -1 0
v -4 -1 0
v -4.5 -1.5 0
v -5 -1.5 0
v -5 -1 0
v -4.5 -1 0
v -5 -1.5 0
v -5.5 -1.5 0
v -5.5 -1 0
v -5 -1 0
v -12 -1.5 0
v -12.5 -1.5 0
v -12.5 -1 0
v -12 -1 0
v -12.5 -1.5 0
v -13 -1.5 0
v -13 -1 0
v -12.5 -1 0
v -13 -1.5 0
v -13.5 -1.5 0
v -13.5 -1 0
v -13 -1 0
v -13.5 -1.5 0
v -14 -1.5 0
v -14 -1 0
v -13.5 -1 0
v -4 -2 0
v -4.5 -2 0
v -4.5 -1.5 0
v -4 -1.5 0
v -4.5 -2 0
v -5 -2 0
v -5 -1.5 0
v -4.5 -1.5 0
v -5 -2 0
v -5.5 -2 0
v -5.5 -1.5 0
v -5 -1.5 0
v -12 -2 0
v -12.5 -2 0
v -12.5 -1.5 0
v -12 -1.5 0
v -12.5 -2 0
v -13 -2 0
v -13 -1.5 0
v -12.5 -1.5 0
v -13 -2 0
v -13.5 -2 0
v -13.5 -1.5 0
v -13 -1.5 0
v -13.5 -2 0
v -14 -2 0
v -14 -1.5 0
v -13.5 -1.5 0
v -4 -2.5 0
v -4.5 -2.5 0
v -4.5 -2 0
v -4 -2 0
v -4.5 -2.5 0
v -5 -2.5 0
v -5 -2 0
v -4.5 -2 0
v -5 -2.5 0
v -5.5 -2.5 0
v -5.5 -2 0
v -5 -2 0
v -12.5 -2.5 0
v -13 -2.5 0
v -13 -2 0
v -12.5 -2 0
v -13 -2.5 0
v -13.5 -2.5 0
v -13.5 -2 0
v -13 -2 0
v -13.5 -2.5 0
v -14 -2.5 0
v -14 -2 0
v -13.5 -2 0
v 0 -3 0
v -0.5 -3 0
v -0.5 -2.5 0
v 0 -2.5 0
v -0.5 -3 0
v -1 -3 0
v -1 -2.5 0
v -0.5 -2.5 0
v -1 -3 0
v -1.5 -3 0
v -1.5 -2.5 0
v -1 -2.5 0
v -1.5 -3 0
v -2 -3 0
v -2 -2.5 0
v -1.5 -2.5 0
v -4 -3 0
v -4.5 -3 0
v -4.5 -2.5 0
v -4 -2.5 0
v -10.5 -3 0
v -11 -3 0
v -11 -2.5 0
v -10.5 -2.5 0
v -11 -3 0
v -11.5 -3 0
v -11.5 -2.5 0
v -11 -2.5 0
v 0 -3.5 0
v -0.5 -3.5 0
v -0.5 -3 0
v 0 -3 0
v -0.5 -3.5 0
v -1 -3.5 0
v -1 -3 0
v -0.5 -3 0
v -1 -3.5 0
v -1.5 -3.5 0
v -1.5 -3 0
v -1 -3 0
v -1.5 -3.5 0
v -2 -3.5 0
v -2 -3 0
v -1.5 -3 0
v -4 -3.5 0
v -4.5 -3.5 0
v -4.5 -3 0
v -4 -3 0
v -10.5 -3.5 0
v -11 -3.5 0
v -11 -3 0
v -10.5 -3 0
v -11 -3.5 0
v -11.5 -3.5 0
v -11.5 -3 0
v -11 -3 0
v -1 -4.5 0
v -1.5 -4.5 0
v -1.5 -4 0
v -1 -4 0
v -1.5 -4.5 0
v -2 -4.5 0
v -2 -4 0
v -1.5 -4 0
v -2 -4.5 0
v -2.5 -4.5 0
v -2.5 -4 0
v -2 -4 0
v -2.5 -4.5 0
v -3 -4.5 0
v -3 -4 0
v -2.5 -4 0
v -3 -4.5 0
v -3.5 -4.5 0
v -3.5 -4 0
v -3 -4 0
v -3.5 -4.5 0
v -4 -4.5 0
v -4 -4 0
v -3.5 -4 0
v -4 -4.5 0
v -4.5 -4.5 0
v -4.5 -4 0
v -4 -4 0
v -4.5 -4.5 0
v -5 -4.5 0
v -5 -4 0
v -4.5 -4 0
v -9.5 -4.5 0
v -10 -4.5 0
v -10 -4 0
v -9.5 -4 0
v -10 -4.5 0
v -10.5 -4.5 0
v -10.5 -4 0
v -10 -4 0
v -10.5 -4.5 0
v -11 -4.5 0
v -11 -4 0
v -10.5 -4 0
v -11 -4.5 0
v -11.5 -4.5 0
v -11.5 -4 0
v -11 -4 0
v -1 -5 0
v -1.5 -5 0
v -1.5 -4.5 0
v -1 -4.5 0
v -1.5 -5 0
v -2 -5 0
v -2 -4.5 0
v -1.5 -4.5 0
v -2 -5 0
v -2.5 -5 0
v -2.5 -4.5 0
v -2 -4.5 0
v -2.5 -5 0
v -3 -5 0
v -3 -4.5 0
v -2.5 -4.5 0
v -3 -5 0
v -3.5 -5 0
v -3.5 -4.5 0
v -3 -4.5 0
v -3.5 -5 0
v -4 -5 0
v -4 -4.5 0
v -3.5 -4.5 0
v -4 -5 0
v -4.5 -5 0
v -4.5 -4.5 0
v -4 -4.5 0
v -4.5 -5 0
v -5 -5 0
v -5 -4.5 0
v -4.5 -4.5 0
v -8.5 -5 0
v -9 -5 0
v -9 -4.5 0
v -8.5 -4.5 0
v -9 -5 0
v -9.5 -5 0
v -9.5 -4.5 0
v -9 -4.5 0
v -9.5 -5 0
v -10 -5 0
v -10 -4.5 0
v -9.5 -4.5 0
v -10 -5 0
v -10.5 -5 0
v -10.5 -4.5 0
v -10 -4.5 0
v -10.5 -5 0
v -11 -5 0
v -11 -4.5 0
v -10.5 -4.5 0
v -11 -5 0
v -11.5 -5 0
v -11.5 -4.5 0
v -11 -4.5 0
v -1 -5.5 0
v -1.5 -5.5 0
v -1.5 -5 0
v -1 -5 0
v -1.5 -5.5 0
v -2 -5.5 0
v -2 -5 0
v -1.5 -5 0
v -2 -5.5 0
v -2.5 -5.5 0
v -2.5 -5 0
v -2 -5 0
v -2.5 -5.5 0
v -3 -5.5 0
v -3 -5 0
v -2.5 -5 0
v -3 -5.5 0
v -3.5 -5.5 0
v -3.5 -5 0
v -3 -5 0
v -3.5 -5.5 0
v -4 -5.5 0
v -4 -5 0
v -3.5 -5 0
v -4 -5.5 0
v -4.5 -5.5 0
v -4.5 -5 0
v -4 -5 0
v -4.5 -5.5 0
v -5 -5.5 0
v -5 -5 0
v -4.5 -5 0
v -5 -5.5 0
v -5.5 -5.5 0
v -5.5 -5 0
v -5 -5 0
v -6.5 -5.5 0
v -7 -5.5 0
v -7 -5 0
v -6.5 -5 0
v -7 -5.5 0
v -7.5 -5.5 0
v -7.5 -5 0
v -7 -5 0
v -7.5 -5.5 0
v -8 -5.5 0
v -8 -5 0
v -7.5 -5 0
v -8 -5.5 0
v -8.5 -5.5 0
v -8.5 -5 0
v -8 -5 0
v -8.5 -5.5 0
v -9 -5.5 0
v -9 -5 0
v -8.5 -5 0
v -9 -5.5 0
v -9.5 -5.5 0
v -9.5 -5 0
v -9 -5 0
v -9.5 -5.5 0
v -10 -5.5 0
v -10 -5 0
v -9.5 -5 0
v -10 -5.5 0
v -10.5 -5.5 0
v -10.5 -5 0
v -10 -5 0
v -1 -6 0
v -1.5 -6 0
v -1.5 -5.5 0
v -1 -5.5 0
v -1.5 -6 0
v -2 -6 0
v -2 -5.5 0
v -1.5 -5.5 0
v -2 -6 0
v -2.5 -6 0
v -2.5 -5.5 0
v -2 -5.5 0
v -2.5 -6 0
v -3 -6 0
v -3 -5.5 0
v -2.5 -5.5 0
v -3 -6 0
v -3.5 -6 0
v -3.5 -5.5 0
v -3 -5.5 0
v -3.5 -6 0
v -4 -6 0
v -4 -5.5 0
v -3.5 -5.5 0
v -4 -6 0
v -4.5 -6 0
v -4.5 -5.5 0
v -4 -5.5 0
v -4.5 -6 0
v -5 -6 0
v -5 -5.5 0
v -4.5 -5.5 0
v -5 -6 0
v -5.5 -6 0
v -5.5 -5.5 0
v -5 -5.5 0
v -5.5 -6 0
v -6 -6 0
v -6 -5.5 0
v -5.5 -5.5 0
v -6 -6 0
v -6.5 -6 0
v -6.5 -5.5 0
v -6 -5.5 0
v -6.5 -6 0
v -7 -6 0
v -7 -5.5 0
v -6.5 -5.5 0
v -7.5 -6 0
v -8 -6 0
v -8 -5.5 0
v -7.5 -5.5 0
v -8 -6 0
v -8.5 -6 0
v -8.5 -5.5 0
v -8 -5.5 0
v -8.5 -6 0
v -9 -6 0
v -9 -5.5 0
v -8.5 -5.5 0
v -9 -6 0
v -9.5 -6 0
v -9.5 -5.5 0
v -9 -5.5 0
v -9.5 -6 0
v -10 -6 0
v -10 -5.5 0
v -9.5 -5.5 0
v -10 -6 0
v -10.5 -6 0
v -10.5 -5.5 0
v -10 -5.5 0
v -10.5 -6 0
v -11 -6 0
v -11 -5.5 0
v -10.5 -5.5 0
v -11 -6 0
v -11.5 -6 0
v -11.5 -5.5 0
v -11 -5.5 0
v -14 -6 0
v -14.5 -6 0
v -14.5 -5.5 0
v -14 -5.5 0
v -5.5 -6.5 0
v -6 -6.5 0
v -6 -6 0
v -5.5 -6 0
v -6 -6.5 0
v -6.5 -6.5 0
v -6.5 -6 0
v -6 -6 0
v -6.5 -6.5 0
v -7 -6.5 0
v -7 -6 0
v -6.5 -6 0
v -7.5 -6.5 0
v -8 -6.5 0
v -8 -6 0
v -7.5 -6 0
v -8 -6.5 0
v -8.5 -6.5 0
v -8.5 -6 0
v -8 -6 0
v -8.5 -6.5 0
v -9 -6.5 0
v -9 -6 0
v -8.5 -6 0
v -9 -6.5 0
v -9.5 -6.5 0
v -9.5 -6 0
v -9 -6 0
v -9.5 -6.5 0
v -10 -6.5 0
v -10 -6 0
v -9.5 -6 0
v -10 -6.5 0
v -10.5 -6.5 0
v -10.5 -6 0
v -10 -6 0
v -10.5 -6.5 0
v -11 -6.5 0
v -11 -6 0
v -10.5 -6 0
v -11 -6.5 0
v -11.5 -6.5 0
v -11.5 -6 0
v -11 -6 0
v -13.5 -6.5 0
v -14 -6.5 0
v -14 -6 0
v -13.5 -6 0
v -14 -6.5 0
v -14.5 -6.5 0
v -14.5 -6 0
v -14 -6 0
v -5.5 -7 0
v -6 -7 0
v -6 -6.5 0
v -5.5 -6.5 0
v -6 -7 0
v -6.5 -7 0
v -6.5 -6.5 0
v -6 -6.5 0
v -6.5 -7 0
v -7 -7 0
v -7 -6.5 0
v -6.5 -6.5 0
v -7 -7 0
v -7.5 -7 0
v -7.5 -6.5 0
v -7 -6.5 0
v -7.5 -7 0
v -8 -7 0
v -8 -6.5 0
v -7.5 -6.5 0
v -8 -7 0
v -8.5 -7 0
v -8.5 -6.5 0
v -8 -6.5 0
v -13 -7 0
v -13.5 -7 0
v -13.5 -6.5 0
v -13 -6.5 0
v -13.5 -7 0
v -14 -7 0
v -14 -6.5 0
v -13.5 -6.5 0
v -14 -7 0
v -14.5 -7 0
v -14.5 -6.5 0
v -14 -6.5 0
v -5.5 -7.5 0
v -6 -7.5 0
v -6 -7 0
v -5.5 -7 0
v -6 -7.5 0
v -6.5 -7.5 0
v -6.5 -7 0
v -6 -7 0
v -6.5 -7.5 0
v -7 -7.5 0
v -7 -7 0
v -6.5 -7 0
v -7 -7.5 0
v -7.5 -7.5 0
v -7.5 -7 0
v -7 -7 0
v -7.5 -7.5 0
v -8 -7.5 0
v -8 -7 0
v -7.5 -7 0
v -8 -7.5 0
v -8.5 -7.5 0
v -8.5 -7 0
v -8 -7 0
v -12.5 -7.5 0
v -13 -7.5 0
v -13 -7 0
v -12.5 -7 0
v -13 -7.5 0
v -13.5 -7.5 0
v -13.5 -7 0
v -13 -7 0
v -13.5 -7.5 0
v -14 -7.5 0
v -14 -7 0
v -13.5 -7 0
v -14 -7.5 0
v -14.5 -7.5 0
v -14.5 -7 0
v -14 -7 0
v -11 -8 0
v -11.5 -8 0
v -11.5 -7.5 0
v -11 -7.5 0
v -11.5 -8 0
v -12 -8 0
v -12 -7.5 0
v -11.5 -7.5 0
v -12 -8 0
v -12.5 -8 0
v -12.5 -7.5 0
v -12 -7.5 0
v -12.5 -8 0
v -13 -8 0
v -13 -7.5 0
v -12.5 -7.5 0
v -13 -8 0
v -13.5 -8 0
v -13.5 -7.5 0
v -13 -7.5 0
v -13.5 -8 0
v -14 -8 0
v -14 -7.5 0
v -13.5 -7.5 0
v -9.5 -8.5 0
v -10 -8.5 0
v -10 -8 0
v -9.5 -8 0
v -10 -8.5 0
v -10.5 -8.5 0
v -10.5 -8 0
v -10 -8 0
v -10.5 -8.5 0
v -11 -8.5 0
v -11 -8 0
v -10.5 -8 0
v -11 -8.5 0
v -11.5 -8.5 0
v -11.5 -8 0
v -11 -8 0
v -11.5 -8.5 0
v -12 -8.5 0
v -12 -8 0
v -11.5 -8 0
v -12 -8.5 0
v -12.5 -8.5 0
v -12.5 -8 0
v -12 -8 0
v -12.5 -8.5 0
v -13 -8.5 0
v -13 -8 0
v -12.5 -8 0
v -9.5 -9 0
v -10 -9 0
v -10 -8.5 0
v -9.5 -8.5 0
v -10 -9 0
v -10.5 -9 0
v -10.5 -8.5 0
v -10 -8.5 0
v -10.5 -9 0
v -11 -9 0
v -11 -8.5 0
v -10.5 -8.5 0
v -11 -9 0
v -11.5 -9 0
v -11.5 -8.5 0
v -11 -8.5 0
v -11.5 -9 0
v -12 -9 0
v -12 -8.5 0
v -11.5 -8.5 0
v -12 -9 0
v -12.5 -9 0
v -12.5 -8.5 0
v -12 -8.5 0
v -12.5 -9 0
v -13 -9 0
v -13 -8.5 0
v -12.5 -8.5 0
v -9.5 -9.5 0
v -10 -9.5 0
v -10 -9 0
v -9.5 -9 0
v -10 -9.5 0
v -10.5 -9.5 0
v -10.5 -9 0
v -10 -9 0
v -10.5 -9.5 0
v -11 -9.5 0
v -11 -9 0
v -10.5 -9 0
v -11 -9.5 0
v -11.5 -9.5 0
v -11.5 -9 0
v -11 -9 0
v -9.5 -10 0
v -10 -10 0
v -10 -9.5 0
v -9.5 -9.5 0
v -10 -10 0
v -10.5 -10 0
v -10.5 -9.5 0
v -10 -9.5 0
v -10.5 -10 0
v -11 -10 0
v -11 -9.5 0
v -10.5 -9.5 0
v -11 -10 0
v -11.5 -10 0
v -11.5 -9.5 0
v -11 -9.5 0
v -11.5 -10 0
v -12 -10 0
v -12 -9.5 0
v -11.5 -9.5 0
v -12 -10 0
v -12.5 -10 0
v -12.5 -9.5 0
v -12 -9.5 0
v -12.5 -10 0
v -13 -10 0
v -13 -9.5 0
v -12.5 -9.5 0
v -13 -10 0
v -13.5 -10 0
v -13.5 -9.5 0
v -13 -9.5 0
v -13.5 -10 0
v -14 -10 0
v -14 -9.5 0
v -13.5 -9.5 0
v -9.5 -10.5 0
v -10 -10.5 0
v -10 -10 0
v -9.5 -10 0
v -10 -10.5 0
v -10.5 -10.5 0
v -10.5 -10 0
v -10 -10 0
v -10.5 -10.5 0
v -11 -10.5 0
v -11 -10 0
v -10.5 -10 0
v -11 -10.5 0
v -11.5 -10.5 0
v -11.5 -10 0
v -11 -10 0
v -11.5 -10.5 0
v -12 -10.5 0
v -12 -10 0
v -11.5 -10 0
v -12 -10.5 0
v -12.5 -10.5 0
v -12.5 -10 0
v -12 -10 0
v -12.5 -10.5 0
v -13 -10.5 0
v -13 -10 0
v -12.5 -10 0
v -13 -10.5 0
v -13.5 -10.5 0
v -13.5 -10 0
v -13 -10 0
v -11 -11 0
v -11.5 -11 0
v -11.5 -10.5 0
v -11 -10.5 0
v -11.5 -11 0
v -12 -11 0
v -12 -10.5 0
v -11.5 -10.5 0
v -12 -11 0
v -12.5 -11 0
v -12.5 -10.5 0
v -12 -10.5 0
v -11 -11.5 0
v -11.5 -11.5 0
v -11.5 -11 0
v -11 -11 0
v -11.5 -11.5 0
v -12 -11.5 0
v -12 -11 0
v -11.5 -11 0
v -12 -11.5 0
v -12.5 -11.5 0
v -12.5 -11 0
v -12 -11 0

# Texture cooridinates (Count = 17)
vt 0 0.5
vt 0.08333334 0.5
vt 0.08333334 1
vt 0 1
vt 0.1666667 0.5
vt 0.1666667 1
vt 0 0
vt 0.08333334 0
vt 0.1666667 0
vt 0.25 0.5
vt 0.25 1
vt 0.3333333 0.5
vt 0.3333333 1
vt 0.4166667 0.5
vt 0.4166667 1
vt 0.25 0
vt 0.3333333 0

# Normal
vn 0 0 -1

# Mesh description
g level_3_mesh_0001

# Faces
f 1/1/1 2/2/1 3/3/1 4/4/1
f 5/1/1 6/2/1 7/3/1 8/4/1
f 9/1/1 10/2/1 11/3/1 12/4/1
f 13/1/1 14/2/1 15/3/1 16/4/1
f 17/1/1 18/2/1 19/3/1 20/4/1
f 21/1/1 22/2/1 23/3/1 24/4/1
f 25/1/1 26/2/1 27/3/1 28/4/1
f 29/1/1 30/2/1 31/3/1 32/4/1
f 33/2/1 34/5/1 35/6/1 36/3/1
f 37/1/1 38/2/1 39/3/1 40/4/1
f 41/2/1 42/5/1 43/6/1 44/3/1
f 45/1/1 46/2/1 47/3/1 48/4/1
f 49/1/1 50/2/1 51/3/1 52/4/1
f 53/1/1 54/2/1 55/3/1 56/4/1
f 57/7/1 58/8/1 59/2/1 60/1/1
f 61/8/1 62/9/1 63/5/1 64/2/1
f 65/7/1 66/8/1 67/2/1 68/1/1
f 69/8/1 70/9/1 71/5/1 72/2/1
f 73/1/1 74/2/1 75/3/1 76/4/1
f 77/1/1 78/2/1 79/3/1 80/4/1
f 81/1/1 82/2/1 83/3/1 84/4/1
f 85/7/1 86/8/1 87/2/1 88/1/1
f 89/8/1 90/9/1 91/5/1 92/2/1
f 93/8/1 94/9/1 95/5/1 96/2/1
f 97/1/1 98/2/1 99/3/1 100/4/1
f 101/1/1 102/2/1 103/3/1 104/4/1
f 105/1/1 106/2/1 107/3/1 108/4/1
f 109/1/1 110/2/1 111/3/1 112/4/1
f 113/1/1 114/2/1 115/3/1 116/4/1
f 117/1/1 118/2/1 119/3/1 120/4/1
f 121/2/1 122/5/1 123/6/1 124/3/1
f 125/1/1 126/2/1 127/3/1 128/4/1
f 129/1/1 130/2/1 131/3/1 132/4/1
f 133/1/1 134/2/1 135/3/1 136/4/1
f 137/1/1 138/2/1 139/3/1 140/4/1
f 141/1/1 142/2/1 143/3/1 144/4/1
f 145/7/1 146/8/1 147/2/1 148/1/1
f 149/8/1 150/9/1 151/5/1 152/2/1
f 153/1/1 154/2/1 155/3/1 156/4/1
f 157/1/1 158/2/1 159/3/1 160/4/1
f 161/1/1 162/2/1 163/3/1 164/4/1
f 165/1/1 166/2/1 167/3/1 168/4/1
f 169/1/1 170/2/1 171/3/1 172/4/1
f 173/1/1 174/2/1 175/3/1 176/4/1
f 177/1/1 178/2/1 179/3/1 180/4/1
f 181/1/1 182/2/1 183/3/1 184/4/1
f 185/1/1 186/2/1 187/3/1 188/4/1
f 189/2/1 190/5/1 191/6/1 192/3/1
f 193/1/1 194/2/1 195/3/1 196/4/1
f 197/2/1 198/5/1 199/6/1 200/3/1
f 201/1/1 202/2/1 203/3/1 204/4/1
f 205/1/1 206/2/1 207/3/1 208/4/1
f 209/2/1 210/5/1 211/6/1 212/3/1
f 213/1/1 214/2/1 215/3/1 216/4/1
f 217/1/1 218/2/1 219/3/1 220/4/1
f 221/2/1 222/5/1 223/6/1 224/3/1
f 225/1/1 226/2/1 227/3/1 228/4/1
f 229/2/1 230/5/1 231/6/1 232/3/1
f 233/1/1 234/2/1 235/3/1 236/4/1
f 237/2/1 238/5/1 239/6/1 240/3/1
f 241/7/1 242/8/1 243/2/1 244/1/1
f 245/8/1 246/9/1 247/5/1 248/2/1
f 249/7/1 250/8/1 251/2/1 252/1/1
f 253/8/1 254/9/1 255/5/1 256/2/1
f 257/1/1 258/2/1 259/3/1 260/4/1
f 261/1/1 262/2/1 263/3/1 264/4/1
f 265/1/1 266/2/1 267/3/1 268/4/1
f 269/2/1 270/5/1 271/6/1 272/3/1
f 273/1/1 274/2/1 275/3/1 276/4/1
f 277/1/1 278/2/1 279/3/1 280/4/1
f 281/1/1 282/2/1 283/3/1 284/4/1
f 285/1/1 286/2/1 287/3/1 288/4/1
f 289/2/1 290/5/1 291/6/1 292/3/1
f 293/2/1 294/5/1 295/6/1 296/3/1
f 297/2/1 298/5/1 299/6/1 300/3/1
f 301/1/1 302/2/1 303/3/1 304/4/1
f 305/2/1 306/5/1 307/6/1 308/3/1
f 309/7/1 310/8/1 311/2/1 312/1/1
f 313/8/1 314/9/1 315/5/1 316/2/1
f 317/1/1 318/2/1 319/3/1 320/4/1
f 321/2/1 322/5/1 323/6/1 324/3/1
f 325/1/1 326/2/1 327/3/1 328/4/1
f 329/1/1 330/2/1 331/3/1 332/4/1
f 333/1/1 334/2/1 335/3/1 336/4/1
f 337/1/1 338/2/1 339/3/1 340/4/1
f 341/1/1 342/2/1 343/3/1 344/4/1
f 345/1/1 346/2/1 347/3/1 348/4/1
f 349/1/1 350/2/1 351/3/1 352/4/1
f 353/1/1 354/2/1 355/3/1 356/4/1
f 357/2/1 358/5/1 359/6/1 360/3/1
f 361/2/1 362/5/1 363/6/1 364/3/1
f 365/2/1 366/5/1 367/6/1 368/3/1
f 369/2/1 370/5/1 371/6/1 372/3/1
f 373/1/1 374/2/1 375/3/1 376/4/1
f 377/2/1 378/5/1 379/6/1 380/3/1
f 381/1/1 382/2/1 383/3/1 384/4/1
f 385/2/1 386/5/1 387/6/1 388/3/1
f 389/1/1 390/2/1 391/3/1 392/4/1
f 393/2/1 394/5/1 395/6/1 396/3/1
f 397/1/1 398/2/1 399/3/1 400/4/1
f 401/2/1 402/5/1 403/6/1 404/3/1
f 405/5/1 406/10/1 407/11/1 408/6/1
f 409/2/1 410/5/1 411/6/1 412/3/1
f 413/2/1 414/5/1 415/6/1 416/3/1
f 417/2/1 418/5/1 419/6/1 420/3/1
f 421/7/1 422/8/1 423/2/1 424/1/1
f 425/8/1 426/9/1 427/5/1 428/2/1
f 429/7/1 430/8/1 431/2/1 432/1/1
f 433/8/1 434/9/1 435/5/1 436/2/1
f 437/7/1 438/8/1 439/2/1 440/1/1
f 441/8/1 442/9/1 443/5/1 444/2/1
f 445/7/1 446/8/1 447/2/1 448/1/1
f 449/8/1 450/9/1 451/5/1 452/2/1
f 453/5/1 454/10/1 455/11/1 456/6/1
f 457/5/1 458/10/1 459/11/1 460/6/1
f 461/1/1 462/2/1 463/3/1 464/4/1
f 465/2/1 466/5/1 467/6/1 468/3/1
f 469/1/1 470/2/1 471/3/1 472/4/1
f 473/2/1 474/5/1 475/6/1 476/3/1
f 477/1/1 478/2/1 479/3/1 480/4/1
f 481/2/1 482/5/1 483/6/1 484/3/1
f 485/5/1 486/10/1 487/11/1 488/6/1
f 489/5/1 490/10/1 491/11/1 492/6/1
f 493/5/1 494/10/1 495/11/1 496/6/1
f 497/7/1 498/8/1 499/2/1 500/1/1
f 501/8/1 502/9/1 503/5/1 504/2/1
f 505/7/1 506/8/1 507/2/1 508/1/1
f 509/8/1 510/9/1 511/5/1 512/2/1
f 513/7/1 514/8/1 515/2/1 516/1/1
f 517/8/1 518/9/1 519/5/1 520/2/1
f 521/5/1 522/10/1 523/11/1 524/6/1
f 525/1/1 526/2/1 527/3/1 528/4/1
f 529/2/1 530/5/1 531/6/1 532/3/1
f 533/5/1 534/10/1 535/11/1 536/6/1
f 537/5/1 538/10/1 539/11/1 540/6/1
f 541/5/1 542/10/1 543/11/1 544/6/1
f 545/5/1 546/10/1 547/11/1 548/6/1
f 549/5/1 550/10/1 551/11/1 552/6/1
f 553/7/1 554/8/1 555/2/1 556/1/1
f 557/8/1 558/9/1 559/5/1 560/2/1
f 561/5/1 562/10/1 563/11/1 564/6/1
f 565/5/1 566/10/1 567/11/1 568/6/1
f 569/5/1 570/10/1 571/11/1 572/6/1
f 573/5/1 574/10/1 575/11/1 576/6/1
f 577/1/1 578/2/1 579/3/1 580/4/1
f 581/2/1 582/5/1 583/6/1 584/3/1
f 585/5/1 586/10/1 587/11/1 588/6/1
f 589/5/1 590/10/1 591/11/1 592/6/1
f 593/5/1 594/10/1 595/11/1 596/6/1
f 597/5/1 598/10/1 599/11/1 600/6/1
f 601/5/1 602/10/1 603/11/1 604/6/1
f 605/7/1 606/8/1 607/2/1 608/1/1
f 609/8/1 610/9/1 611/5/1 612/2/1
f 613/5/1 614/10/1 615/11/1 616/6/1
f 617/5/1 618/10/1 619/11/1 620/6/1
f 621/5/1 622/10/1 623/11/1 624/6/1
f 625/5/1 626/10/1 627/11/1 628/6/1
f 629/5/1 630/10/1 631/11/1 632/6/1
f 633/5/1 634/10/1 635/11/1 636/6/1
f 637/10/1 638/12/1 639/13/1 640/11/1
f 641/5/1 642/10/1 643/11/1 644/6/1
f 645/10/1 646/12/1 647/13/1 648/11/1
f 649/5/1 650/10/1 651/11/1 652/6/1
f 653/10/1 654/12/1 655/13/1 656/11/1
f 657/5/1 658/10/1 659/11/1 660/6/1
f 661/10/1 662/12/1 663/13/1 664/11/1
f 665/12/1 666/14/1 667/15/1 668/13/1
f 669/9/1 670/16/1 671/10/1 672/5/1
f 673/16/1 674/17/1 675/12/1 676/10/1
f 677/9/1 678/16/1 679/10/1 680/5/1
f 681/16/1 682/17/1 683/12/1 684/10/1
f 685/9/1 686/16/1 687/10/1 688/5/1
f 689/16/1 690/17/1 691/12/1 692/10/1
f 693/9/1 694/16/1 695/10/1 696/5/1
f 697/16/1 698/17/1 699/12/1 700/10/1
f 701/5/1 702/10/1 703/11/1 704/6/1
f 705/10/1 706/12/1 707/13/1 708/11/1
f 709/5/1 710/10/1 711/11/1 712/6/1
f 713/9/1 714/16/1 715/10/1 716/5/1
f 717/16/1 718/17/1 719/12/1 720/10/1
f 721/9/1 722/16/1 723/10/1 724/5/1

