# Tiled2Unity generated file. Do not modify by hand.
# Wavefront file for 'level_4_mesh_0001.obj'

# Vertices (Count = 188)
v -1.5 -1.5 0
v -2 -1.5 0
v -2 -1 0
v -1.5 -1 0
v -2 -1.5 0
v -2.5 -1.5 0
v -2.5 -1 0
v -2 -1 0
v -2.5 -1.5 0
v -3 -1.5 0
v -3 -1 0
v -2.5 -1 0
v -3 -1.5 0
v -3.5 -1.5 0
v -3.5 -1 0
v -3 -1 0
v -3.5 -1.5 0
v -4 -1.5 0
v -4 -1 0
v -3.5 -1 0
v -4 -1.5 0
v -4.5 -1.5 0
v -4.5 -1 0
v -4 -1 0
v -4.5 -1.5 0
v -5 -1.5 0
v -5 -1 0
v -4.5 -1 0
v -5 -1.5 0
v -5.5 -1.5 0
v -5.5 -1 0
v -5 -1 0
v -5.5 -1.5 0
v -6 -1.5 0
v -6 -1 0
v -5.5 -1 0
v -6 -1.5 0
v -6.5 -1.5 0
v -6.5 -1 0
v -6 -1 0
v -7 -1.5 0
v -7.5 -1.5 0
v -7.5 -1 0
v -7 -1 0
v -1.5 -2 0
v -2 -2 0
v -2 -1.5 0
v -1.5 -1.5 0
v -4 -2 0
v -4.5 -2 0
v -4.5 -1.5 0
v -4 -1.5 0
v -4.5 -2 0
v -5 -2 0
v -5 -1.5 0
v -4.5 -1.5 0
v -5 -2 0
v -5.5 -2 0
v -5.5 -1.5 0
v -5 -1.5 0
v -5.5 -2 0
v -6 -2 0
v -6 -1.5 0
v -5.5 -1.5 0
v -6.5 -2 0
v -7 -2 0
v -7 -1.5 0
v -6.5 -1.5 0
v -7.5 -2 0
v -8 -2 0
v -8 -1.5 0
v -7.5 -1.5 0
v -1.5 -2.5 0
v -2 -2.5 0
v -2 -2 0
v -1.5 -2 0
v -4 -2.5 0
v -4.5 -2.5 0
v -4.5 -2 0
v -4 -2 0
v -4.5 -2.5 0
v -5 -2.5 0
v -5 -2 0
v -4.5 -2 0
v -5 -2.5 0
v -5.5 -2.5 0
v -5.5 -2 0
v -5 -2 0
v -5.5 -2.5 0
v -6 -2.5 0
v -6 -2 0
v -5.5 -2 0
v -6 -2.5 0
v -6.5 -2.5 0
v -6.5 -2 0
v -6 -2 0
v -7 -2.5 0
v -7.5 -2.5 0
v -7.5 -2 0
v -7 -2 0
v 0 -3 0
v -0.5 -3 0
v -0.5 -2.5 0
v 0 -2.5 0
v -0.5 -3 0
v -1 -3 0
v -1 -2.5 0
v -0.5 -2.5 0
v -1 -3 0
v -1.5 -3 0
v -1.5 -2.5 0
v -1 -2.5 0
v -1.5 -3 0
v -2 -3 0
v -2 -2.5 0
v -1.5 -2.5 0
v -4 -3 0
v -4.5 -3 0
v -4.5 -2.5 0
v -4 -2.5 0
v -4.5 -3 0
v -5 -3 0
v -5 -2.5 0
v -4.5 -2.5 0
v -5 -3 0
v -5.5 -3 0
v -5.5 -2.5 0
v -5 -2.5 0
v -5.5 -3 0
v -6 -3 0
v -6 -2.5 0
v -5.5 -2.5 0
v -6.5 -3 0
v -7 -3 0
v -7 -2.5 0
v -6.5 -2.5 0
v -7.5 -3 0
v -8 -3 0
v -8 -2.5 0
v -7.5 -2.5 0
v 0 -3.5 0
v -0.5 -3.5 0
v -0.5 -3 0
v 0 -3 0
v -0.5 -3.5 0
v -1 -3.5 0
v -1 -3 0
v -0.5 -3 0
v -1 -3.5 0
v -1.5 -3.5 0
v -1.5 -3 0
v -1 -3 0
v -1.5 -3.5 0
v -2 -3.5 0
v -2 -3 0
v -1.5 -3 0
v -4 -3.5 0
v -4.5 -3.5 0
v -4.5 -3 0
v -4 -3 0
v -5.5 -3.5 0
v -6 -3.5 0
v -6 -3 0
v -5.5 -3 0
v -6 -3.5 0
v -6.5 -3.5 0
v -6.5 -3 0
v -6 -3 0
v -7 -3.5 0
v -7.5 -3.5 0
v -7.5 -3 0
v -7 -3 0
v -5.5 -4 0
v -6 -4 0
v -6 -3.5 0
v -5.5 -3.5 0
v -6.5 -4 0
v -7 -4 0
v -7 -3.5 0
v -6.5 -3.5 0
v -7 -4 0
v -7.5 -4 0
v -7.5 -3.5 0
v -7 -3.5 0
v -7.5 -4 0
v -8 -4 0
v -8 -3.5 0
v -7.5 -3.5 0

# Texture cooridinates (Count = 36)
vt 0.25 0.75
vt 0.3125 0.75
vt 0.3125 1
vt 0.25 1
vt 0 0.75
vt 0.0625 0.75
vt 0.0625 1
vt 0 1
vt 0.125 0.75
vt 0.125 1
vt 0.625 0.75
vt 0.5625 0.75
vt 0.5625 0.5
vt 0.625 0.5
vt 0.0625 0.5
vt 0.125 0.5
vt 0.1875 0.5
vt 0.1875 0.75
vt 0.25 0.5
vt 0.625 1
vt 0.5625 1
vt 0.0625 0.25
vt 0.125 0.25
vt 0.1875 0.25
vt 0.25 0.25
vt 0 0.25
vt 0 0.5
vt 0.0625 0
vt 0.125 0
vt 0.1875 0
vt 0.25 0
vt 0 0
vt 0.4375 0.75
vt 0.5 0.75
vt 0.5 1
vt 0.4375 1

# Normal
vn 0 0 -1

# Mesh description
g level_4_mesh_0001

# Faces
f 1/1/1 2/2/1 3/3/1 4/4/1
f 5/1/1 6/2/1 7/3/1 8/4/1
f 9/1/1 10/2/1 11/3/1 12/4/1
f 13/1/1 14/2/1 15/3/1 16/4/1
f 17/5/1 18/6/1 19/7/1 20/8/1
f 21/6/1 22/9/1 23/10/1 24/7/1
f 25/1/1 26/2/1 27/3/1 28/4/1
f 29/1/1 30/2/1 31/3/1 32/4/1
f 33/11/1 34/12/1 35/13/1 36/14/1
f 37/1/1 38/2/1 39/3/1 40/4/1
f 41/1/1 42/2/1 43/3/1 44/4/1
f 45/1/1 46/2/1 47/3/1 48/4/1
f 49/15/1 50/16/1 51/9/1 52/6/1
f 53/16/1 54/17/1 55/18/1 56/9/1
f 57/17/1 58/19/1 59/1/1 60/18/1
f 61/20/1 62/21/1 63/12/1 64/11/1
f 65/1/1 66/2/1 67/3/1 68/4/1
f 69/1/1 70/2/1 71/3/1 72/4/1
f 73/1/1 74/2/1 75/3/1 76/4/1
f 77/22/1 78/23/1 79/16/1 80/15/1
f 81/23/1 82/24/1 83/17/1 84/16/1
f 85/24/1 86/25/1 87/19/1 88/17/1
f 89/11/1 90/12/1 91/13/1 92/14/1
f 93/1/1 94/2/1 95/3/1 96/4/1
f 97/1/1 98/2/1 99/3/1 100/4/1
f 101/1/1 102/2/1 103/3/1 104/4/1
f 105/1/1 106/2/1 107/3/1 108/4/1
f 109/26/1 110/22/1 111/15/1 112/27/1
f 113/22/1 114/23/1 115/16/1 116/15/1
f 117/28/1 118/29/1 119/23/1 120/22/1
f 121/29/1 122/30/1 123/24/1 124/23/1
f 125/30/1 126/31/1 127/25/1 128/24/1
f 129/20/1 130/21/1 131/12/1 132/11/1
f 133/1/1 134/2/1 135/3/1 136/4/1
f 137/1/1 138/2/1 139/3/1 140/4/1
f 141/1/1 142/2/1 143/3/1 144/4/1
f 145/1/1 146/2/1 147/3/1 148/4/1
f 149/32/1 150/28/1 151/22/1 152/26/1
f 153/28/1 154/29/1 155/23/1 156/22/1
f 157/28/1 158/29/1 159/23/1 160/22/1
f 161/11/1 162/12/1 163/13/1 164/14/1
f 165/1/1 166/2/1 167/3/1 168/4/1
f 169/1/1 170/2/1 171/3/1 172/4/1
f 173/20/1 174/21/1 175/12/1 176/11/1
f 177/1/1 178/2/1 179/3/1 180/4/1
f 181/33/1 182/34/1 183/35/1 184/36/1
f 185/1/1 186/2/1 187/3/1 188/4/1

