# Tiled2Unity generated file. Do not modify by hand.
# Wavefront file for 'level_4_mesh_0019.obj'

# Vertices (Count = 20)
v -13 -7.5 0
v -15 -7.5 0
v -15 -5.5 0
v -13 -5.5 0
v -15 -7.5 0
v -17 -7.5 0
v -17 -5.5 0
v -15 -5.5 0
v -19 -7.5 0
v -21 -7.5 0
v -21 -5.5 0
v -19 -5.5 0
v -21 -7.5 0
v -23 -7.5 0
v -23 -5.5 0
v -21 -5.5 0
v -2 -16 0
v -4 -16 0
v -4 -14 0
v -2 -14 0

# Texture cooridinates (Count = 4)
vt 0.5 0.3333333
vt 0.625 0.3333333
vt 0.625 0.6666666
vt 0.5 0.6666666

# Normal
vn 0 0 -1

# Mesh description
g level_4_mesh_0019

# Faces
f 1/1/1 2/2/1 3/3/1 4/4/1
f 5/1/1 6/2/1 7/3/1 8/4/1
f 9/1/1 10/2/1 11/3/1 12/4/1
f 13/1/1 14/2/1 15/3/1 16/4/1
f 17/1/1 18/2/1 19/3/1 20/4/1

