# Tiled2Unity generated file. Do not modify by hand.
# Wavefront file for 'stage3_mesh_0007.obj'

# Vertices (Count = 16)
v -19.52 -6.72 0
v -19.84 -6.72 0
v -19.84 -6.4 0
v -19.52 -6.4 0
v -20.16 -7.68 0
v -20.48 -7.68 0
v -20.48 -7.36 0
v -20.16 -7.36 0
v -15.68 -9.28 0
v -16 -9.28 0
v -16 -8.96 0
v -15.68 -8.96 0
v -17.6 -9.28 0
v -17.92 -9.28 0
v -17.92 -8.96 0
v -17.6 -8.96 0

# Texture cooridinates (Count = 4)
vt 0 0
vt 1 0
vt 1 1
vt 0 1

# Normal
vn 0 0 -1

# Mesh description
g stage3_mesh_0007

# Faces
f 1/1/1 2/2/1 3/3/1 4/4/1
f 5/1/1 6/2/1 7/3/1 8/4/1
f 9/1/1 10/2/1 11/3/1 12/4/1
f 13/1/1 14/2/1 15/3/1 16/4/1

