# Tiled2Unity generated file. Do not modify by hand.
# Wavefront file for 'stage3_mesh_0004.obj'

# Vertices (Count = 84)
v -19.2 -6.08 0
v -19.52 -6.08 0
v -19.52 -5.76 0
v -19.2 -5.76 0
v -20.16 -6.08 0
v -20.48 -6.08 0
v -20.48 -5.76 0
v -20.16 -5.76 0
v -21.12 -6.08 0
v -21.44 -6.08 0
v -21.44 -5.76 0
v -21.12 -5.76 0
v -22.72 -6.08 0
v -23.04 -6.08 0
v -23.04 -5.76 0
v -22.72 -5.76 0
v -20.8 -6.4 0
v -21.12 -6.4 0
v -21.12 -6.08 0
v -20.8 -6.08 0
v -22.08 -6.4 0
v -22.4 -6.4 0
v -22.4 -6.08 0
v -22.08 -6.08 0
v -23.36 -6.4 0
v -23.68 -6.4 0
v -23.68 -6.08 0
v -23.36 -6.08 0
v -24 -6.4 0
v -24.32 -6.4 0
v -24.32 -6.08 0
v -24 -6.08 0
v -25.28 -6.4 0
v -25.6 -6.4 0
v -25.6 -6.08 0
v -25.28 -6.08 0
v -18.88 -6.72 0
v -19.2 -6.72 0
v -19.2 -6.4 0
v -18.88 -6.4 0
v -21.44 -6.72 0
v -21.76 -6.72 0
v -21.76 -6.4 0
v -21.44 -6.4 0
v -22.72 -6.72 0
v -23.04 -6.72 0
v -23.04 -6.4 0
v -22.72 -6.4 0
v -23.36 -6.72 0
v -23.68 -6.72 0
v -23.68 -6.4 0
v -23.36 -6.4 0
v -24.64 -7.04 0
v -24.96 -7.04 0
v -24.96 -6.72 0
v -24.64 -6.72 0
v -25.28 -7.04 0
v -25.6 -7.04 0
v -25.6 -6.72 0
v -25.28 -6.72 0
v -19.84 -7.36 0
v -20.16 -7.36 0
v -20.16 -7.04 0
v -19.84 -7.04 0
v -25.6 -7.36 0
v -25.92 -7.36 0
v -25.92 -7.04 0
v -25.6 -7.04 0
v -19.84 -7.68 0
v -20.16 -7.68 0
v -20.16 -7.36 0
v -19.84 -7.36 0
v -20.48 -7.68 0
v -20.8 -7.68 0
v -20.8 -7.36 0
v -20.48 -7.36 0
v -19.2 -8 0
v -19.52 -8 0
v -19.52 -7.68 0
v -19.2 -7.68 0
v -16.32 -9.28 0
v -16.64 -9.28 0
v -16.64 -8.96 0
v -16.32 -8.96 0

# Texture cooridinates (Count = 4)
vt 0 0
vt 1 0
vt 1 1
vt 0 1

# Normal
vn 0 0 -1

# Mesh description
g stage3_mesh_0004

# Faces
f 1/1/1 2/2/1 3/3/1 4/4/1
f 5/1/1 6/2/1 7/3/1 8/4/1
f 9/1/1 10/2/1 11/3/1 12/4/1
f 13/1/1 14/2/1 15/3/1 16/4/1
f 17/1/1 18/2/1 19/3/1 20/4/1
f 21/1/1 22/2/1 23/3/1 24/4/1
f 25/1/1 26/2/1 27/3/1 28/4/1
f 29/1/1 30/2/1 31/3/1 32/4/1
f 33/1/1 34/2/1 35/3/1 36/4/1
f 37/1/1 38/2/1 39/3/1 40/4/1
f 41/1/1 42/2/1 43/3/1 44/4/1
f 45/1/1 46/2/1 47/3/1 48/4/1
f 49/1/1 50/2/1 51/3/1 52/4/1
f 53/1/1 54/2/1 55/3/1 56/4/1
f 57/1/1 58/2/1 59/3/1 60/4/1
f 61/1/1 62/2/1 63/3/1 64/4/1
f 65/1/1 66/2/1 67/3/1 68/4/1
f 69/1/1 70/2/1 71/3/1 72/4/1
f 73/1/1 74/2/1 75/3/1 76/4/1
f 77/1/1 78/2/1 79/3/1 80/4/1
f 81/1/1 82/2/1 83/3/1 84/4/1

