# Tiled2Unity generated file. Do not modify by hand.
# Wavefront file for 'level_1_mesh_0013.obj'

# Vertices (Count = 104)
v -31.5 -10.5 0
v -32 -10.5 0
v -32 -10 0
v -31.5 -10 0
v -31.5 -11 0
v -32 -11 0
v -32 -10.5 0
v -31.5 -10.5 0
v -31.5 -11.5 0
v -32 -11.5 0
v -32 -11 0
v -31.5 -11 0
v -31.5 -12 0
v -32 -12 0
v -32 -11.5 0
v -31.5 -11.5 0
v -10 -12.5 0
v -10.5 -12.5 0
v -10.5 -12 0
v -10 -12 0
v -10.5 -12.5 0
v -11 -12.5 0
v -11 -12 0
v -10.5 -12 0
v -11 -12.5 0
v -11.5 -12.5 0
v -11.5 -12 0
v -11 -12 0
v -11.5 -12.5 0
v -12 -12.5 0
v -12 -12 0
v -11.5 -12 0
v -12 -12.5 0
v -12.5 -12.5 0
v -12.5 -12 0
v -12 -12 0
v -31 -12.5 0
v -31.5 -12.5 0
v -31.5 -12 0
v -31 -12 0
v -31.5 -12.5 0
v -32 -12.5 0
v -32 -12 0
v -31.5 -12 0
v -9.5 -13 0
v -10 -13 0
v -10 -12.5 0
v -9.5 -12.5 0
v -10 -13 0
v -10.5 -13 0
v -10.5 -12.5 0
v -10 -12.5 0
v -10.5 -13 0
v -11 -13 0
v -11 -12.5 0
v -10.5 -12.5 0
v -11 -13 0
v -11.5 -13 0
v -11.5 -12.5 0
v -11 -12.5 0
v -11.5 -13 0
v -12 -13 0
v -12 -12.5 0
v -11.5 -12.5 0
v -20.5 -13 0
v -21 -13 0
v -21 -12.5 0
v -20.5 -12.5 0
v -21 -13 0
v -21.5 -13 0
v -21.5 -12.5 0
v -21 -12.5 0
v -21.5 -13 0
v -22 -13 0
v -22 -12.5 0
v -21.5 -12.5 0
v -20.5 -13.5 0
v -21 -13.5 0
v -21 -13 0
v -20.5 -13 0
v -21.5 -13.5 0
v -22 -13.5 0
v -22 -13 0
v -21.5 -13 0
v -22 -13.5 0
v -22.5 -13.5 0
v -22.5 -13 0
v -22 -13 0
v -20.5 -14 0
v -21 -14 0
v -21 -13.5 0
v -20.5 -13.5 0
v -21 -14 0
v -21.5 -14 0
v -21.5 -13.5 0
v -21 -13.5 0
v -22 -14 0
v -22.5 -14 0
v -22.5 -13.5 0
v -22 -13.5 0
v -22.5 -14 0
v -23 -14 0
v -23 -13.5 0
v -22.5 -13.5 0

# Texture cooridinates (Count = 21)
vt 0.08333334 0.5
vt 0.1666667 0.5
vt 0.1666667 1
vt 0.08333334 1
vt 0.25 0.5
vt 0.25 1
vt 0.3333333 0.5
vt 0.3333333 1
vt 0.4166667 0.5
vt 0.4166667 1
vt 0.5 0.5
vt 0.5 1
vt 0 0.5
vt 0 1
vt 0.08333334 0
vt 0.1666667 0
vt 0 0
vt 0.25 0
vt 0.3333333 0
vt 0.4166667 0
vt 0.5 0

# Normal
vn 0 0 -1

# Mesh description
g level_1_mesh_0013

# Faces
f 1/1/1 2/2/1 3/3/1 4/4/1
f 5/1/1 6/2/1 7/3/1 8/4/1
f 9/1/1 10/2/1 11/3/1 12/4/1
f 13/1/1 14/2/1 15/3/1 16/4/1
f 17/1/1 18/2/1 19/3/1 20/4/1
f 21/2/1 22/5/1 23/6/1 24/3/1
f 25/5/1 26/7/1 27/8/1 28/6/1
f 29/7/1 30/9/1 31/10/1 32/8/1
f 33/9/1 34/11/1 35/12/1 36/10/1
f 37/13/1 38/1/1 39/4/1 40/14/1
f 41/15/1 42/16/1 43/2/1 44/1/1
f 45/17/1 46/15/1 47/1/1 48/13/1
f 49/15/1 50/16/1 51/2/1 52/1/1
f 53/16/1 54/18/1 55/5/1 56/2/1
f 57/18/1 58/19/1 59/7/1 60/5/1
f 61/19/1 62/20/1 63/9/1 64/7/1
f 65/13/1 66/1/1 67/4/1 68/14/1
f 69/1/1 70/2/1 71/3/1 72/4/1
f 73/13/1 74/1/1 75/4/1 76/14/1
f 77/7/1 78/9/1 79/10/1 80/8/1
f 81/7/1 82/9/1 83/10/1 84/8/1
f 85/9/1 86/11/1 87/12/1 88/10/1
f 89/19/1 90/20/1 91/9/1 92/7/1
f 93/20/1 94/21/1 95/11/1 96/9/1
f 97/20/1 98/21/1 99/11/1 100/9/1
f 101/20/1 102/21/1 103/11/1 104/9/1

