# Tiled2Unity generated file. Do not modify by hand.
# Wavefront file for 'level_1_mesh_0012.obj'

# Vertices (Count = 776)
v -24.5 -1.5 0
v -25 -1.5 0
v -25 -1 0
v -24.5 -1 0
v -25.5 -1.5 0
v -26 -1.5 0
v -26 -1 0
v -25.5 -1 0
v -26 -1.5 0
v -26.5 -1.5 0
v -26.5 -1 0
v -26 -1 0
v -26.5 -1.5 0
v -27 -1.5 0
v -27 -1 0
v -26.5 -1 0
v -27 -1.5 0
v -27.5 -1.5 0
v -27.5 -1 0
v -27 -1 0
v -28.5 -1.5 0
v -29 -1.5 0
v -29 -1 0
v -28.5 -1 0
v -30.5 -1.5 0
v -31 -1.5 0
v -31 -1 0
v -30.5 -1 0
v -32 -1.5 0
v -32.5 -1.5 0
v -32.5 -1 0
v -32 -1 0
v -32.5 -1.5 0
v -33 -1.5 0
v -33 -1 0
v -32.5 -1 0
v -33 -1.5 0
v -33.5 -1.5 0
v -33.5 -1 0
v -33 -1 0
v -2 -2 0
v -2.5 -2 0
v -2.5 -1.5 0
v -2 -1.5 0
v -3 -2 0
v -3.5 -2 0
v -3.5 -1.5 0
v -3 -1.5 0
v -4 -2 0
v -4.5 -2 0
v -4.5 -1.5 0
v -4 -1.5 0
v -5.5 -2 0
v -6 -2 0
v -6 -1.5 0
v -5.5 -1.5 0
v -7 -2 0
v -7.5 -2 0
v -7.5 -1.5 0
v -7 -1.5 0
v -9.5 -2 0
v -10 -2 0
v -10 -1.5 0
v -9.5 -1.5 0
v -10 -2 0
v -10.5 -2 0
v -10.5 -1.5 0
v -10 -1.5 0
v -24.5 -2 0
v -25 -2 0
v -25 -1.5 0
v -24.5 -1.5 0
v -26 -2 0
v -26.5 -2 0
v -26.5 -1.5 0
v -26 -1.5 0
v -27.5 -2 0
v -28 -2 0
v -28 -1.5 0
v -27.5 -1.5 0
v -28.5 -2 0
v -29 -2 0
v -29 -1.5 0
v -28.5 -1.5 0
v -29 -2 0
v -29.5 -2 0
v -29.5 -1.5 0
v -29 -1.5 0
v -30 -2 0
v -30.5 -2 0
v -30.5 -1.5 0
v -30 -1.5 0
v -33 -2 0
v -33.5 -2 0
v -33.5 -1.5 0
v -33 -1.5 0
v -1 -2.5 0
v -1.5 -2.5 0
v -1.5 -2 0
v -1 -2 0
v -2 -2.5 0
v -2.5 -2.5 0
v -2.5 -2 0
v -2 -2 0
v -3 -2.5 0
v -3.5 -2.5 0
v -3.5 -2 0
v -3 -2 0
v -5 -2.5 0
v -5.5 -2.5 0
v -5.5 -2 0
v -5 -2 0
v -6.5 -2.5 0
v -7 -2.5 0
v -7 -2 0
v -6.5 -2 0
v -8.5 -2.5 0
v -9 -2.5 0
v -9 -2 0
v -8.5 -2 0
v -24.5 -2.5 0
v -25 -2.5 0
v -25 -2 0
v -24.5 -2 0
v -25 -2.5 0
v -25.5 -2.5 0
v -25.5 -2 0
v -25 -2 0
v -25.5 -2.5 0
v -26 -2.5 0
v -26 -2 0
v -25.5 -2 0
v -26.5 -2.5 0
v -27 -2.5 0
v -27 -2 0
v -26.5 -2 0
v -27.5 -2.5 0
v -28 -2.5 0
v -28 -2 0
v -27.5 -2 0
v -28.5 -2.5 0
v -29 -2.5 0
v -29 -2 0
v -28.5 -2 0
v -29 -2.5 0
v -29.5 -2.5 0
v -29.5 -2 0
v -29 -2 0
v -30.5 -2.5 0
v -31 -2.5 0
v -31 -2 0
v -30.5 -2 0
v -31.5 -2.5 0
v -32 -2.5 0
v -32 -2 0
v -31.5 -2 0
v -1 -3 0
v -1.5 -3 0
v -1.5 -2.5 0
v -1 -2.5 0
v -2 -3 0
v -2.5 -3 0
v -2.5 -2.5 0
v -2 -2.5 0
v -3.5 -3 0
v -4 -3 0
v -4 -2.5 0
v -3.5 -2.5 0
v -4 -3 0
v -4.5 -3 0
v -4.5 -2.5 0
v -4 -2.5 0
v -5 -3 0
v -5.5 -3 0
v -5.5 -2.5 0
v -5 -2.5 0
v -5.5 -3 0
v -6 -3 0
v -6 -2.5 0
v -5.5 -2.5 0
v -6.5 -3 0
v -7 -3 0
v -7 -2.5 0
v -6.5 -2.5 0
v -7.5 -3 0
v -8 -3 0
v -8 -2.5 0
v -7.5 -2.5 0
v -8 -3 0
v -8.5 -3 0
v -8.5 -2.5 0
v -8 -2.5 0
v -9.5 -3 0
v -10 -3 0
v -10 -2.5 0
v -9.5 -2.5 0
v -10 -3 0
v -10.5 -3 0
v -10.5 -2.5 0
v -10 -2.5 0
v -11 -3 0
v -11.5 -3 0
v -11.5 -2.5 0
v -11 -2.5 0
v -27 -3 0
v -27.5 -3 0
v -27.5 -2.5 0
v -27 -2.5 0
v -28.5 -3 0
v -29 -3 0
v -29 -2.5 0
v -28.5 -2.5 0
v -1.5 -3.5 0
v -2 -3.5 0
v -2 -3 0
v -1.5 -3 0
v -3.5 -3.5 0
v -4 -3.5 0
v -4 -3 0
v -3.5 -3 0
v -5 -3.5 0
v -5.5 -3.5 0
v -5.5 -3 0
v -5 -3 0
v -6 -3.5 0
v -6.5 -3.5 0
v -6.5 -3 0
v -6 -3 0
v -6.5 -3.5 0
v -7 -3.5 0
v -7 -3 0
v -6.5 -3 0
v -7 -3.5 0
v -7.5 -3.5 0
v -7.5 -3 0
v -7 -3 0
v -8 -3.5 0
v -8.5 -3.5 0
v -8.5 -3 0
v -8 -3 0
v -9 -3.5 0
v -9.5 -3.5 0
v -9.5 -3 0
v -9 -3 0
v -10 -3.5 0
v -10.5 -3.5 0
v -10.5 -3 0
v -10 -3 0
v -10.5 -3.5 0
v -11 -3.5 0
v -11 -3 0
v -10.5 -3 0
v -27 -3.5 0
v -27.5 -3.5 0
v -27.5 -3 0
v -27 -3 0
v -27.5 -3.5 0
v -28 -3.5 0
v -28 -3 0
v -27.5 -3 0
v -30 -3.5 0
v -30.5 -3.5 0
v -30.5 -3 0
v -30 -3 0
v -30.5 -3.5 0
v -31 -3.5 0
v -31 -3 0
v -30.5 -3 0
v -1 -4 0
v -1.5 -4 0
v -1.5 -3.5 0
v -1 -3.5 0
v -1.5 -4 0
v -2 -4 0
v -2 -3.5 0
v -1.5 -3.5 0
v -2 -4 0
v -2.5 -4 0
v -2.5 -3.5 0
v -2 -3.5 0
v -2.5 -4 0
v -3 -4 0
v -3 -3.5 0
v -2.5 -3.5 0
v -3 -4 0
v -3.5 -4 0
v -3.5 -3.5 0
v -3 -3.5 0
v -3.5 -4 0
v -4 -4 0
v -4 -3.5 0
v -3.5 -3.5 0
v -4 -4 0
v -4.5 -4 0
v -4.5 -3.5 0
v -4 -3.5 0
v -4.5 -4 0
v -5 -4 0
v -5 -3.5 0
v -4.5 -3.5 0
v -5 -4 0
v -5.5 -4 0
v -5.5 -3.5 0
v -5 -3.5 0
v -5.5 -4 0
v -6 -4 0
v -6 -3.5 0
v -5.5 -3.5 0
v -6 -4 0
v -6.5 -4 0
v -6.5 -3.5 0
v -6 -3.5 0
v -6.5 -4 0
v -7 -4 0
v -7 -3.5 0
v -6.5 -3.5 0
v -7 -4 0
v -7.5 -4 0
v -7.5 -3.5 0
v -7 -3.5 0
v -8.5 -4 0
v -9 -4 0
v -9 -3.5 0
v -8.5 -3.5 0
v -9 -4 0
v -9.5 -4 0
v -9.5 -3.5 0
v -9 -3.5 0
v -9.5 -4 0
v -10 -4 0
v -10 -3.5 0
v -9.5 -3.5 0
v -11.5 -4 0
v -12 -4 0
v -12 -3.5 0
v -11.5 -3.5 0
v -17 -4 0
v -17.5 -4 0
v -17.5 -3.5 0
v -17 -3.5 0
v -1 -4.5 0
v -1.5 -4.5 0
v -1.5 -4 0
v -1 -4 0
v -1.5 -4.5 0
v -2 -4.5 0
v -2 -4 0
v -1.5 -4 0
v -2 -4.5 0
v -2.5 -4.5 0
v -2.5 -4 0
v -2 -4 0
v -2.5 -4.5 0
v -3 -4.5 0
v -3 -4 0
v -2.5 -4 0
v -5 -4.5 0
v -5.5 -4.5 0
v -5.5 -4 0
v -5 -4 0
v -5.5 -4.5 0
v -6 -4.5 0
v -6 -4 0
v -5.5 -4 0
v -6 -4.5 0
v -6.5 -4.5 0
v -6.5 -4 0
v -6 -4 0
v -6.5 -4.5 0
v -7 -4.5 0
v -7 -4 0
v -6.5 -4 0
v -7.5 -4.5 0
v -8 -4.5 0
v -8 -4 0
v -7.5 -4 0
v -10 -4.5 0
v -10.5 -4.5 0
v -10.5 -4 0
v -10 -4 0
v -10.5 -4.5 0
v -11 -4.5 0
v -11 -4 0
v -10.5 -4 0
v -11 -4.5 0
v -11.5 -4.5 0
v -11.5 -4 0
v -11 -4 0
v -1 -5 0
v -1.5 -5 0
v -1.5 -4.5 0
v -1 -4.5 0
v -1.5 -5 0
v -2 -5 0
v -2 -4.5 0
v -1.5 -4.5 0
v -2 -5 0
v -2.5 -5 0
v -2.5 -4.5 0
v -2 -4.5 0
v -2.5 -5 0
v -3 -5 0
v -3 -4.5 0
v -2.5 -4.5 0
v -5 -5 0
v -5.5 -5 0
v -5.5 -4.5 0
v -5 -4.5 0
v -5.5 -5 0
v -6 -5 0
v -6 -4.5 0
v -5.5 -4.5 0
v -6 -5 0
v -6.5 -5 0
v -6.5 -4.5 0
v -6 -4.5 0
v -6.5 -5 0
v -7 -5 0
v -7 -4.5 0
v -6.5 -4.5 0
v -7 -5 0
v -7.5 -5 0
v -7.5 -4.5 0
v -7 -4.5 0
v -8 -5 0
v -8.5 -5 0
v -8.5 -4.5 0
v -8 -4.5 0
v -9 -5 0
v -9.5 -5 0
v -9.5 -4.5 0
v -9 -4.5 0
v -9.5 -5 0
v -10 -5 0
v -10 -4.5 0
v -9.5 -4.5 0
v -10 -5 0
v -10.5 -5 0
v -10.5 -4.5 0
v -10 -4.5 0
v -10.5 -5 0
v -11 -5 0
v -11 -4.5 0
v -10.5 -4.5 0
v -11.5 -5 0
v -12 -5 0
v -12 -4.5 0
v -11.5 -4.5 0
v -12 -5 0
v -12.5 -5 0
v -12.5 -4.5 0
v -12 -4.5 0
v -1 -5.5 0
v -1.5 -5.5 0
v -1.5 -5 0
v -1 -5 0
v -1.5 -5.5 0
v -2 -5.5 0
v -2 -5 0
v -1.5 -5 0
v -2 -5.5 0
v -2.5 -5.5 0
v -2.5 -5 0
v -2 -5 0
v -2.5 -5.5 0
v -3 -5.5 0
v -3 -5 0
v -2.5 -5 0
v -5 -5.5 0
v -5.5 -5.5 0
v -5.5 -5 0
v -5 -5 0
v -5.5 -5.5 0
v -6 -5.5 0
v -6 -5 0
v -5.5 -5 0
v -6 -5.5 0
v -6.5 -5.5 0
v -6.5 -5 0
v -6 -5 0
v -6.5 -5.5 0
v -7 -5.5 0
v -7 -5 0
v -6.5 -5 0
v -9 -5.5 0
v -9.5 -5.5 0
v -9.5 -5 0
v -9 -5 0
v -10.5 -5.5 0
v -11 -5.5 0
v -11 -5 0
v -10.5 -5 0
v -21.5 -5.5 0
v -22 -5.5 0
v -22 -5 0
v -21.5 -5 0
v -22 -5.5 0
v -22.5 -5.5 0
v -22.5 -5 0
v -22 -5 0
v -24 -5.5 0
v -24.5 -5.5 0
v -24.5 -5 0
v -24 -5 0
v -25 -5.5 0
v -25.5 -5.5 0
v -25.5 -5 0
v -25 -5 0
v -25.5 -5.5 0
v -26 -5.5 0
v -26 -5 0
v -25.5 -5 0
v -26 -5.5 0
v -26.5 -5.5 0
v -26.5 -5 0
v -26 -5 0
v -1 -6 0
v -1.5 -6 0
v -1.5 -5.5 0
v -1 -5.5 0
v -1.5 -6 0
v -2 -6 0
v -2 -5.5 0
v -1.5 -5.5 0
v -2 -6 0
v -2.5 -6 0
v -2.5 -5.5 0
v -2 -5.5 0
v -2.5 -6 0
v -3 -6 0
v -3 -5.5 0
v -2.5 -5.5 0
v -5 -6 0
v -5.5 -6 0
v -5.5 -5.5 0
v -5 -5.5 0
v -5.5 -6 0
v -6 -6 0
v -6 -5.5 0
v -5.5 -5.5 0
v -6 -6 0
v -6.5 -6 0
v -6.5 -5.5 0
v -6 -5.5 0
v -6.5 -6 0
v -7 -6 0
v -7 -5.5 0
v -6.5 -5.5 0
v -8 -6 0
v -8.5 -6 0
v -8.5 -5.5 0
v -8 -5.5 0
v -8.5 -6 0
v -9 -6 0
v -9 -5.5 0
v -8.5 -5.5 0
v -10 -6 0
v -10.5 -6 0
v -10.5 -5.5 0
v -10 -5.5 0
v -24.5 -6 0
v -25 -6 0
v -25 -5.5 0
v -24.5 -5.5 0
v -25 -6 0
v -25.5 -6 0
v -25.5 -5.5 0
v -25 -5.5 0
v -25.5 -6 0
v -26 -6 0
v -26 -5.5 0
v -25.5 -5.5 0
v -26 -6 0
v -26.5 -6 0
v -26.5 -5.5 0
v -26 -5.5 0
v -26.5 -6 0
v -27 -6 0
v -27 -5.5 0
v -26.5 -5.5 0
v -24.5 -6.5 0
v -25 -6.5 0
v -25 -6 0
v -24.5 -6 0
v -25 -6.5 0
v -25.5 -6.5 0
v -25.5 -6 0
v -25 -6 0
v -25.5 -6.5 0
v -26 -6.5 0
v -26 -6 0
v -25.5 -6 0
v -26 -6.5 0
v -26.5 -6.5 0
v -26.5 -6 0
v -26 -6 0
v -22 -7 0
v -22.5 -7 0
v -22.5 -6.5 0
v -22 -6.5 0
v -24 -7 0
v -24.5 -7 0
v -24.5 -6.5 0
v -24 -6.5 0
v -25 -7 0
v -25.5 -7 0
v -25.5 -6.5 0
v -25 -6.5 0
v -25.5 -7 0
v -26 -7 0
v -26 -6.5 0
v -25.5 -6.5 0
v -26 -7 0
v -26.5 -7 0
v -26.5 -6.5 0
v -26 -6.5 0
v -24.5 -7.5 0
v -25 -7.5 0
v -25 -7 0
v -24.5 -7 0
v -26.5 -7.5 0
v -27 -7.5 0
v -27 -7 0
v -26.5 -7 0
v -20.5 -8 0
v -21 -8 0
v -21 -7.5 0
v -20.5 -7.5 0
v -21 -8 0
v -21.5 -8 0
v -21.5 -7.5 0
v -21 -7.5 0
v -13 -8.5 0
v -13.5 -8.5 0
v -13.5 -8 0
v -13 -8 0
v -16 -8.5 0
v -16.5 -8.5 0
v -16.5 -8 0
v -16 -8 0
v -16.5 -8.5 0
v -17 -8.5 0
v -17 -8 0
v -16.5 -8 0
v -20.5 -8.5 0
v -21 -8.5 0
v -21 -8 0
v -20.5 -8 0
v -21 -8.5 0
v -21.5 -8.5 0
v -21.5 -8 0
v -21 -8 0
v -11 -9 0
v -11.5 -9 0
v -11.5 -8.5 0
v -11 -8.5 0
v -12 -9 0
v -12.5 -9 0
v -12.5 -8.5 0
v -12 -8.5 0
v -15 -9 0
v -15.5 -9 0
v -15.5 -8.5 0
v -15 -8.5 0
v -14.5 -9.5 0
v -15 -9.5 0
v -15 -9 0
v -14.5 -9 0
v -11 -10 0
v -11.5 -10 0
v -11.5 -9.5 0
v -11 -9.5 0
v -12.5 -10 0
v -13 -10 0
v -13 -9.5 0
v -12.5 -9.5 0
v -13.5 -10 0
v -14 -10 0
v -14 -9.5 0
v -13.5 -9.5 0
v -14 -10 0
v -14.5 -10 0
v -14.5 -9.5 0
v -14 -9.5 0
v -15 -10 0
v -15.5 -10 0
v -15.5 -9.5 0
v -15 -9.5 0
v -29.5 -10.5 0
v -30 -10.5 0
v -30 -10 0
v -29.5 -10 0
v -30 -10.5 0
v -30.5 -10.5 0
v -30.5 -10 0
v -30 -10 0
v -21 -11 0
v -21.5 -11 0
v -21.5 -10.5 0
v -21 -10.5 0
v -21.5 -11 0
v -22 -11 0
v -22 -10.5 0
v -21.5 -10.5 0
v -20 -13 0
v -20.5 -13 0
v -20.5 -12.5 0
v -20 -12.5 0
v -20 -13.5 0
v -20.5 -13.5 0
v -20.5 -13 0
v -20 -13 0
v -21 -13.5 0
v -21.5 -13.5 0
v -21.5 -13 0
v -21 -13 0
v -22.5 -13.5 0
v -23 -13.5 0
v -23 -13 0
v -22.5 -13 0
v -26.5 -13.5 0
v -27 -13.5 0
v -27 -13 0
v -26.5 -13 0
v -31.5 -13.5 0
v -32 -13.5 0
v -32 -13 0
v -31.5 -13 0
v -20 -14 0
v -20.5 -14 0
v -20.5 -13.5 0
v -20 -13.5 0
v -21.5 -14 0
v -22 -14 0
v -22 -13.5 0
v -21.5 -13.5 0
v -12 -14.5 0
v -12.5 -14.5 0
v -12.5 -14 0
v -12 -14 0
v -20 -14.5 0
v -20.5 -14.5 0
v -20.5 -14 0
v -20 -14 0
v -20.5 -14.5 0
v -21 -14.5 0
v -21 -14 0
v -20.5 -14 0
v -21 -14.5 0
v -21.5 -14.5 0
v -21.5 -14 0
v -21 -14 0
v -21.5 -14.5 0
v -22 -14.5 0
v -22 -14 0
v -21.5 -14 0
v -22 -14.5 0
v -22.5 -14.5 0
v -22.5 -14 0
v -22 -14 0
v -12 -15 0
v -12.5 -15 0
v -12.5 -14.5 0
v -12 -14.5 0
v -13 -15 0
v -13.5 -15 0
v -13.5 -14.5 0
v -13 -14.5 0
v -16.5 -15 0
v -17 -15 0
v -17 -14.5 0
v -16.5 -14.5 0
v -12 -15.5 0
v -12.5 -15.5 0
v -12.5 -15 0
v -12 -15 0

# Texture cooridinates (Count = 75)
vt 0.5625 0.75
vt 0.625 0.75
vt 0.625 1
vt 0.5625 1
vt 0.4375 0.75
vt 0.5 0.75
vt 0.5 1
vt 0.4375 1
vt 0.75 0.5
vt 0.8125 0.5
vt 0.8125 0.75
vt 0.75 0.75
vt 0.875 0.75
vt 0.875 1
vt 0.8125 1
vt 0.5 0.25
vt 0.5625 0.25
vt 0.5625 0.5
vt 0.5 0.5
vt 0.625 0.25
vt 0.625 0.5
vt 0.875 0.5
vt 0.8125 0.25
vt 0.875 0.25
vt 0.625 0
vt 0.6875 0
vt 0.6875 0.25
vt 0.75 0
vt 0.75 0.25
vt 0.25 0.75
vt 0.3125 0.75
vt 0.3125 1
vt 0.25 1
vt 0.25 0.5
vt 0.3125 0.5
vt 0.6875 0.5
vt 0.6875 0.75
vt 0.6875 1
vt 0.75 1
vt 0 0.75
vt 0.0625 0.75
vt 0.0625 1
vt 0 1
vt 0.125 0.75
vt 0.125 1
vt 0.1875 0.75
vt 0.1875 1
vt 0.375 0.5
vt 0.4375 0.5
vt 0.375 0.75
vt 0 0.5
vt 0.0625 0.5
vt 0.125 0.5
vt 0.1875 0.5
vt 0.375 0.25
vt 0.4375 0.25
vt 0.9375 0.25
vt 0.9375 0.5
vt 1 0.25
vt 1 0.5
vt 0 0.25
vt 0.0625 0.25
vt 0.125 0.25
vt 0.1875 0.25
vt 0.25 0.25
vt 0.8125 0
vt 0.875 0
vt 0.5 0
vt 0.5625 0
vt 0 0
vt 0.0625 0
vt 0.125 0
vt 0.1875 0
vt 0.25 0
vt 0.4375 0

# Normal
vn 0 0 -1

# Mesh description
g level_1_mesh_0012

# Faces
f 1/1/1 2/2/1 3/3/1 4/4/1
f 5/5/1 6/6/1 7/7/1 8/8/1
f 9/1/1 10/2/1 11/3/1 12/4/1
f 13/9/1 14/10/1 15/11/1 16/12/1
f 17/5/1 18/6/1 19/7/1 20/8/1
f 21/11/1 22/13/1 23/14/1 24/15/1
f 25/9/1 26/10/1 27/11/1 28/12/1
f 29/16/1 30/17/1 31/18/1 32/19/1
f 33/17/1 34/20/1 35/21/1 36/18/1
f 37/1/1 38/2/1 39/3/1 40/4/1
f 41/5/1 42/6/1 43/7/1 44/8/1
f 45/5/1 46/6/1 47/7/1 48/8/1
f 49/5/1 50/6/1 51/7/1 52/8/1
f 53/5/1 54/6/1 55/7/1 56/8/1
f 57/5/1 58/6/1 59/7/1 60/8/1
f 61/5/1 62/6/1 63/7/1 64/8/1
f 65/1/1 66/2/1 67/3/1 68/4/1
f 69/18/1 70/21/1 71/2/1 72/1/1
f 73/18/1 74/21/1 75/2/1 76/1/1
f 77/9/1 78/10/1 79/11/1 80/12/1
f 81/10/1 82/22/1 83/13/1 84/11/1
f 85/5/1 86/6/1 87/7/1 88/8/1
f 89/9/1 90/10/1 91/11/1 92/12/1
f 93/18/1 94/21/1 95/2/1 96/1/1
f 97/5/1 98/6/1 99/7/1 100/8/1
f 101/5/1 102/6/1 103/7/1 104/8/1
f 105/5/1 106/6/1 107/7/1 108/8/1
f 109/5/1 110/6/1 111/7/1 112/8/1
f 113/5/1 114/6/1 115/7/1 116/8/1
f 117/5/1 118/6/1 119/7/1 120/8/1
f 121/5/1 122/6/1 123/7/1 124/8/1
f 125/9/1 126/10/1 127/11/1 128/12/1
f 129/5/1 130/6/1 131/7/1 132/8/1
f 133/5/1 134/6/1 135/7/1 136/8/1
f 137/5/1 138/6/1 139/7/1 140/8/1
f 141/23/1 142/24/1 143/22/1 144/10/1
f 145/9/1 146/10/1 147/11/1 148/12/1
f 149/5/1 150/6/1 151/7/1 152/8/1
f 153/9/1 154/10/1 155/11/1 156/12/1
f 157/5/1 158/6/1 159/7/1 160/8/1
f 161/5/1 162/6/1 163/7/1 164/8/1
f 165/5/1 166/6/1 167/7/1 168/8/1
f 169/5/1 170/6/1 171/7/1 172/8/1
f 173/1/1 174/2/1 175/3/1 176/4/1
f 177/5/1 178/6/1 179/7/1 180/8/1
f 181/1/1 182/2/1 183/3/1 184/4/1
f 185/5/1 186/6/1 187/7/1 188/8/1
f 189/1/1 190/2/1 191/3/1 192/4/1
f 193/5/1 194/6/1 195/7/1 196/8/1
f 197/1/1 198/2/1 199/3/1 200/4/1
f 201/5/1 202/6/1 203/7/1 204/8/1
f 205/9/1 206/10/1 207/11/1 208/12/1
f 209/5/1 210/6/1 211/7/1 212/8/1
f 213/5/1 214/6/1 215/7/1 216/8/1
f 217/5/1 218/6/1 219/7/1 220/8/1
f 221/18/1 222/21/1 223/2/1 224/1/1
f 225/5/1 226/6/1 227/7/1 228/8/1
f 229/18/1 230/21/1 231/2/1 232/1/1
f 233/5/1 234/6/1 235/7/1 236/8/1
f 237/18/1 238/21/1 239/2/1 240/1/1
f 241/5/1 242/6/1 243/7/1 244/8/1
f 245/5/1 246/6/1 247/7/1 248/8/1
f 249/1/1 250/2/1 251/3/1 252/4/1
f 253/25/1 254/26/1 255/27/1 256/20/1
f 257/26/1 258/28/1 259/29/1 260/27/1
f 261/25/1 262/26/1 263/27/1 264/20/1
f 265/26/1 266/28/1 267/29/1 268/27/1
f 269/5/1 270/6/1 271/7/1 272/8/1
f 273/5/1 274/6/1 275/7/1 276/8/1
f 277/5/1 278/6/1 279/7/1 280/8/1
f 281/5/1 282/6/1 283/7/1 284/8/1
f 285/5/1 286/6/1 287/7/1 288/8/1
f 289/30/1 290/31/1 291/32/1 292/33/1
f 293/5/1 294/6/1 295/7/1 296/8/1
f 297/5/1 298/6/1 299/7/1 300/8/1
f 301/30/1 302/31/1 303/32/1 304/33/1
f 305/5/1 306/6/1 307/7/1 308/8/1
f 309/5/1 310/6/1 311/7/1 312/8/1
f 313/30/1 314/31/1 315/32/1 316/33/1
f 317/5/1 318/6/1 319/7/1 320/8/1
f 321/5/1 322/6/1 323/7/1 324/8/1
f 325/1/1 326/2/1 327/3/1 328/4/1
f 329/5/1 330/6/1 331/7/1 332/8/1
f 333/34/1 334/35/1 335/31/1 336/30/1
f 337/20/1 338/27/1 339/36/1 340/21/1
f 341/6/1 342/1/1 343/4/1 344/7/1
f 345/1/1 346/2/1 347/3/1 348/4/1
f 349/2/1 350/37/1 351/38/1 352/3/1
f 353/37/1 354/12/1 355/39/1 356/38/1
f 357/40/1 358/41/1 359/42/1 360/43/1
f 361/41/1 362/44/1 363/45/1 364/42/1
f 365/44/1 366/46/1 367/47/1 368/45/1
f 369/46/1 370/30/1 371/33/1 372/47/1
f 373/5/1 374/6/1 375/7/1 376/8/1
f 377/48/1 378/49/1 379/5/1 380/50/1
f 381/1/1 382/2/1 383/3/1 384/4/1
f 385/5/1 386/6/1 387/7/1 388/8/1
f 389/19/1 390/18/1 391/1/1 392/6/1
f 393/18/1 394/21/1 395/2/1 396/1/1
f 397/21/1 398/36/1 399/37/1 400/2/1
f 401/36/1 402/9/1 403/12/1 404/37/1
f 405/51/1 406/52/1 407/41/1 408/40/1
f 409/52/1 410/53/1 411/44/1 412/41/1
f 413/53/1 414/54/1 415/46/1 416/44/1
f 417/54/1 418/34/1 419/30/1 420/46/1
f 421/5/1 422/6/1 423/7/1 424/8/1
f 425/5/1 426/6/1 427/7/1 428/8/1
f 429/5/1 430/6/1 431/7/1 432/8/1
f 433/5/1 434/6/1 435/7/1 436/8/1
f 437/55/1 438/56/1 439/49/1 440/48/1
f 441/1/1 442/2/1 443/3/1 444/4/1
f 445/24/1 446/57/1 447/58/1 448/22/1
f 449/57/1 450/59/1 451/60/1 452/58/1
f 453/16/1 454/17/1 455/18/1 456/19/1
f 457/17/1 458/20/1 459/21/1 460/18/1
f 461/20/1 462/27/1 463/36/1 464/21/1
f 465/27/1 466/29/1 467/9/1 468/36/1
f 469/61/1 470/62/1 471/52/1 472/51/1
f 473/62/1 474/63/1 475/53/1 476/52/1
f 477/63/1 478/64/1 479/54/1 480/53/1
f 481/64/1 482/65/1 483/34/1 484/54/1
f 485/5/1 486/6/1 487/7/1 488/8/1
f 489/5/1 490/6/1 491/7/1 492/8/1
f 493/16/1 494/17/1 495/18/1 496/19/1
f 497/17/1 498/20/1 499/21/1 500/18/1
f 501/5/1 502/6/1 503/7/1 504/8/1
f 505/66/1 506/67/1 507/24/1 508/23/1
f 509/66/1 510/67/1 511/24/1 512/23/1
f 513/5/1 514/6/1 515/7/1 516/8/1
f 517/68/1 518/69/1 519/17/1 520/16/1
f 521/69/1 522/25/1 523/20/1 524/17/1
f 525/25/1 526/26/1 527/27/1 528/20/1
f 529/26/1 530/28/1 531/29/1 532/27/1
f 533/70/1 534/71/1 535/62/1 536/61/1
f 537/71/1 538/72/1 539/63/1 540/62/1
f 541/72/1 542/73/1 543/64/1 544/63/1
f 545/73/1 546/74/1 547/65/1 548/64/1
f 549/5/1 550/6/1 551/7/1 552/8/1
f 553/5/1 554/6/1 555/7/1 556/8/1
f 557/5/1 558/6/1 559/7/1 560/8/1
f 561/5/1 562/6/1 563/7/1 564/8/1
f 565/24/1 566/57/1 567/58/1 568/22/1
f 569/57/1 570/59/1 571/60/1 572/58/1
f 573/5/1 574/6/1 575/7/1 576/8/1
f 577/5/1 578/6/1 579/7/1 580/8/1
f 581/5/1 582/6/1 583/7/1 584/8/1
f 585/5/1 586/6/1 587/7/1 588/8/1
f 589/5/1 590/6/1 591/7/1 592/8/1
f 593/5/1 594/6/1 595/7/1 596/8/1
f 597/9/1 598/10/1 599/11/1 600/12/1
f 601/5/1 602/6/1 603/7/1 604/8/1
f 605/18/1 606/21/1 607/2/1 608/1/1
f 609/18/1 610/21/1 611/2/1 612/1/1
f 613/5/1 614/6/1 615/7/1 616/8/1
f 617/5/1 618/6/1 619/7/1 620/8/1
f 621/5/1 622/6/1 623/7/1 624/8/1
f 625/53/1 626/54/1 627/46/1 628/44/1
f 629/54/1 630/34/1 631/30/1 632/46/1
f 633/5/1 634/6/1 635/7/1 636/8/1
f 637/5/1 638/6/1 639/7/1 640/8/1
f 641/5/1 642/6/1 643/7/1 644/8/1
f 645/63/1 646/64/1 647/54/1 648/53/1
f 649/64/1 650/65/1 651/34/1 652/54/1
f 653/5/1 654/6/1 655/7/1 656/8/1
f 657/5/1 658/6/1 659/7/1 660/8/1
f 661/5/1 662/6/1 663/7/1 664/8/1
f 665/5/1 666/6/1 667/7/1 668/8/1
f 669/5/1 670/6/1 671/7/1 672/8/1
f 673/44/1 674/46/1 675/47/1 676/45/1
f 677/16/1 678/17/1 679/18/1 680/19/1
f 681/17/1 682/20/1 683/21/1 684/18/1
f 685/44/1 686/46/1 687/47/1 688/45/1
f 689/20/1 690/27/1 691/36/1 692/21/1
f 693/20/1 694/27/1 695/36/1 696/21/1
f 697/66/1 698/67/1 699/24/1 700/23/1
f 701/66/1 702/67/1 703/24/1 704/23/1
f 705/5/1 706/6/1 707/7/1 708/8/1
f 709/5/1 710/6/1 711/7/1 712/8/1
f 713/5/1 714/6/1 715/7/1 716/8/1
f 717/5/1 718/6/1 719/7/1 720/8/1
f 721/20/1 722/27/1 723/36/1 724/21/1
f 725/20/1 726/27/1 727/36/1 728/21/1
f 729/5/1 730/6/1 731/7/1 732/8/1
f 733/5/1 734/6/1 735/7/1 736/8/1
f 737/61/1 738/62/1 739/52/1 740/51/1
f 741/5/1 742/6/1 743/7/1 744/8/1
f 745/5/1 746/6/1 747/7/1 748/8/1
f 749/5/1 750/6/1 751/7/1 752/8/1
f 753/5/1 754/6/1 755/7/1 756/8/1
f 757/5/1 758/6/1 759/7/1 760/8/1
f 761/56/1 762/16/1 763/19/1 764/49/1
f 765/44/1 766/46/1 767/47/1 768/45/1
f 769/20/1 770/27/1 771/36/1 772/21/1
f 773/75/1 774/68/1 775/16/1 776/56/1

