# Tiled2Unity generated file. Do not modify by hand.
# Wavefront file for 'stage_test1_mesh_0014.obj'

# Vertices (Count = 96)
v -896 -256 0
v -928 -256 0
v -928 -224 0
v -896 -224 0
v -928 -256 0
v -960 -256 0
v -960 -224 0
v -928 -224 0
v -960 -256 0
v -992 -256 0
v -992 -224 0
v -960 -224 0
v -992 -256 0
v -1024 -256 0
v -1024 -224 0
v -992 -224 0
v -1024 -256 0
v -1056 -256 0
v -1056 -224 0
v -1024 -224 0
v -1056 -256 0
v -1088 -256 0
v -1088 -224 0
v -1056 -224 0
v -1088 -256 0
v -1120 -256 0
v -1120 -224 0
v -1088 -224 0
v -1120 -256 0
v -1152 -256 0
v -1152 -224 0
v -1120 -224 0
v -896 -288 0
v -928 -288 0
v -928 -256 0
v -896 -256 0
v -928 -288 0
v -960 -288 0
v -960 -256 0
v -928 -256 0
v -960 -288 0
v -992 -288 0
v -992 -256 0
v -960 -256 0
v -992 -288 0
v -1024 -288 0
v -1024 -256 0
v -992 -256 0
v -1024 -288 0
v -1056 -288 0
v -1056 -256 0
v -1024 -256 0
v -1056 -288 0
v -1088 -288 0
v -1088 -256 0
v -1056 -256 0
v -1088 -288 0
v -1120 -288 0
v -1120 -256 0
v -1088 -256 0
v -1120 -288 0
v -1152 -288 0
v -1152 -256 0
v -1120 -256 0
v -896 -320 0
v -928 -320 0
v -928 -288 0
v -896 -288 0
v -928 -320 0
v -960 -320 0
v -960 -288 0
v -928 -288 0
v -960 -320 0
v -992 -320 0
v -992 -288 0
v -960 -288 0
v -992 -320 0
v -1024 -320 0
v -1024 -288 0
v -992 -288 0
v -1024 -320 0
v -1056 -320 0
v -1056 -288 0
v -1024 -288 0
v -1056 -320 0
v -1088 -320 0
v -1088 -288 0
v -1056 -288 0
v -1088 -320 0
v -1120 -320 0
v -1120 -288 0
v -1088 -288 0
v -1120 -320 0
v -1152 -320 0
v -1152 -288 0
v -1120 -288 0

# Texture cooridinates (Count = 36)
vt 0 0.25
vt 0.125 0.25
vt 0.125 0.375
vt 0 0.375
vt 0.25 0.25
vt 0.25 0.375
vt 0.375 0.25
vt 0.375 0.375
vt 0.5 0.25
vt 0.5 0.375
vt 0.625 0.25
vt 0.625 0.375
vt 0.75 0.25
vt 0.75 0.375
vt 0.875 0.25
vt 0.875 0.375
vt 1 0.25
vt 1 0.375
vt 0 0.125
vt 0.125 0.125
vt 0.25 0.125
vt 0.375 0.125
vt 0.5 0.125
vt 0.625 0.125
vt 0.75 0.125
vt 0.875 0.125
vt 1 0.125
vt 0 0
vt 0.125 0
vt 0.25 0
vt 0.375 0
vt 0.5 0
vt 0.625 0
vt 0.75 0
vt 0.875 0
vt 1 0

# Normal
vn 0 0 -1

# Mesh description
g stage_test1_mesh_0014

# Faces
f 1/1/1 2/2/1 3/3/1 4/4/1
f 5/2/1 6/5/1 7/6/1 8/3/1
f 9/5/1 10/7/1 11/8/1 12/6/1
f 13/7/1 14/9/1 15/10/1 16/8/1
f 17/9/1 18/11/1 19/12/1 20/10/1
f 21/11/1 22/13/1 23/14/1 24/12/1
f 25/13/1 26/15/1 27/16/1 28/14/1
f 29/15/1 30/17/1 31/18/1 32/16/1
f 33/19/1 34/20/1 35/2/1 36/1/1
f 37/20/1 38/21/1 39/5/1 40/2/1
f 41/21/1 42/22/1 43/7/1 44/5/1
f 45/22/1 46/23/1 47/9/1 48/7/1
f 49/23/1 50/24/1 51/11/1 52/9/1
f 53/24/1 54/25/1 55/13/1 56/11/1
f 57/25/1 58/26/1 59/15/1 60/13/1
f 61/26/1 62/27/1 63/17/1 64/15/1
f 65/28/1 66/29/1 67/20/1 68/19/1
f 69/29/1 70/30/1 71/21/1 72/20/1
f 73/30/1 74/31/1 75/22/1 76/21/1
f 77/31/1 78/32/1 79/23/1 80/22/1
f 81/32/1 82/33/1 83/24/1 84/23/1
f 85/33/1 86/34/1 87/25/1 88/24/1
f 89/34/1 90/35/1 91/26/1 92/25/1
f 93/35/1 94/36/1 95/27/1 96/26/1

