# Tiled2Unity generated file. Do not modify by hand.
# Wavefront file for 'stage_test1_mesh_0008.obj'

# Vertices (Count = 28)
v -672 -352 0
v -704 -352 0
v -704 -320 0
v -672 -320 0
v -640 -384 0
v -672 -384 0
v -672 -352 0
v -640 -352 0
v -1344 -384 0
v -1376 -384 0
v -1376 -352 0
v -1344 -352 0
v -608 -416 0
v -640 -416 0
v -640 -384 0
v -608 -384 0
v -1280 -416 0
v -1312 -416 0
v -1312 -384 0
v -1280 -384 0
v -1248 -448 0
v -1280 -448 0
v -1280 -416 0
v -1248 -416 0
v -1216 -480 0
v -1248 -480 0
v -1248 -448 0
v -1216 -448 0

# Texture cooridinates (Count = 4)
vt 0 0
vt 1 0
vt 1 1
vt 0 1

# Normal
vn 0 0 -1

# Mesh description
g stage_test1_mesh_0008

# Faces
f 1/1/1 2/2/1 3/3/1 4/4/1
f 5/1/1 6/2/1 7/3/1 8/4/1
f 9/1/1 10/2/1 11/3/1 12/4/1
f 13/1/1 14/2/1 15/3/1 16/4/1
f 17/1/1 18/2/1 19/3/1 20/4/1
f 21/1/1 22/2/1 23/3/1 24/4/1
f 25/1/1 26/2/1 27/3/1 28/4/1

