# Tiled2Unity generated file. Do not modify by hand.
# Wavefront file for 'stage_test1_mesh_0022.obj'

# Vertices (Count = 28)
v -576 -256 0
v -608 -256 0
v -608 -224 0
v -576 -224 0
v -832 -320 0
v -864 -320 0
v -864 -288 0
v -832 -288 0
v -896 -352 0
v -928 -352 0
v -928 -320 0
v -896 -320 0
v -1056 -352 0
v -1088 -352 0
v -1088 -320 0
v -1056 -320 0
v -1120 -352 0
v -1152 -352 0
v -1152 -320 0
v -1120 -320 0
v -1344 -352 0
v -1376 -352 0
v -1376 -320 0
v -1344 -320 0
v -1312 -384 0
v -1344 -384 0
v -1344 -352 0
v -1312 -352 0

# Texture cooridinates (Count = 4)
vt 0 0
vt 1 0
vt 1 1
vt 0 1

# Normal
vn 0 0 -1

# Mesh description
g stage_test1_mesh_0022

# Faces
f 1/1/1 2/2/1 3/3/1 4/4/1
f 5/1/1 6/2/1 7/3/1 8/4/1
f 9/1/1 10/2/1 11/3/1 12/4/1
f 13/1/1 14/2/1 15/3/1 16/4/1
f 17/1/1 18/2/1 19/3/1 20/4/1
f 21/1/1 22/2/1 23/3/1 24/4/1
f 25/1/1 26/2/1 27/3/1 28/4/1

