# Tiled2Unity generated file. Do not modify by hand.
# Wavefront file for 'stage_test1_mesh_0002.obj'

# Vertices (Count = 48)
v -960 -128 0
v -992 -128 0
v -992 -96 0
v -960 -96 0
v -992 -128 0
v -1024 -128 0
v -1024 -96 0
v -992 -96 0
v -1024 -128 0
v -1056 -128 0
v -1056 -96 0
v -1024 -96 0
v -1120 -128 0
v -1152 -128 0
v -1152 -96 0
v -1120 -96 0
v -1152 -128 0
v -1184 -128 0
v -1184 -96 0
v -1152 -96 0
v -1184 -128 0
v -1216 -128 0
v -1216 -96 0
v -1184 -96 0
v -960 -160 0
v -992 -160 0
v -992 -128 0
v -960 -128 0
v -992 -160 0
v -1024 -160 0
v -1024 -128 0
v -992 -128 0
v -1152 -160 0
v -1184 -160 0
v -1184 -128 0
v -1152 -128 0
v -1184 -160 0
v -1216 -160 0
v -1216 -128 0
v -1184 -128 0
v -960 -192 0
v -992 -192 0
v -992 -160 0
v -960 -160 0
v -1184 -192 0
v -1216 -192 0
v -1216 -160 0
v -1184 -160 0

# Texture cooridinates (Count = 26)
vt 0 0.75
vt 0.125 0.75
vt 0.125 0.875
vt 0 0.875
vt 0.25 0.75
vt 0.25 0.875
vt 0.375 0.75
vt 0.375 0.875
vt 0.625 0.75
vt 0.75 0.75
vt 0.75 0.875
vt 0.625 0.875
vt 0.875 0.75
vt 0.875 0.875
vt 1 0.75
vt 1 0.875
vt 0 0.625
vt 0.125 0.625
vt 0.25 0.625
vt 0.75 0.625
vt 0.875 0.625
vt 1 0.625
vt 0 0.5
vt 0.125 0.5
vt 0.875 0.5
vt 1 0.5

# Normal
vn 0 0 -1

# Mesh description
g stage_test1_mesh_0002

# Faces
f 1/1/1 2/2/1 3/3/1 4/4/1
f 5/2/1 6/5/1 7/6/1 8/3/1
f 9/5/1 10/7/1 11/8/1 12/6/1
f 13/9/1 14/10/1 15/11/1 16/12/1
f 17/10/1 18/13/1 19/14/1 20/11/1
f 21/13/1 22/15/1 23/16/1 24/14/1
f 25/17/1 26/18/1 27/2/1 28/1/1
f 29/18/1 30/19/1 31/5/1 32/2/1
f 33/20/1 34/21/1 35/13/1 36/10/1
f 37/21/1 38/22/1 39/15/1 40/13/1
f 41/23/1 42/24/1 43/18/1 44/17/1
f 45/25/1 46/26/1 47/22/1 48/21/1

