# Tiled2Unity generated file. Do not modify by hand.
# Wavefront file for 'stage_test1_mesh_0025.obj'

# Vertices (Count = 136)
v -544 -128 0
v -576 -128 0
v -576 -96 0
v -544 -96 0
v -576 -128 0
v -608 -128 0
v -608 -96 0
v -576 -96 0
v -608 -128 0
v -640 -128 0
v -640 -96 0
v -608 -96 0
v -640 -128 0
v -672 -128 0
v -672 -96 0
v -640 -96 0
v -544 -160 0
v -576 -160 0
v -576 -128 0
v -544 -128 0
v -576 -160 0
v -608 -160 0
v -608 -128 0
v -576 -128 0
v -608 -160 0
v -640 -160 0
v -640 -128 0
v -608 -128 0
v -640 -160 0
v -672 -160 0
v -672 -128 0
v -640 -128 0
v -544 -192 0
v -576 -192 0
v -576 -160 0
v -544 -160 0
v -576 -192 0
v -608 -192 0
v -608 -160 0
v -576 -160 0
v -608 -192 0
v -640 -192 0
v -640 -160 0
v -608 -160 0
v -640 -192 0
v -672 -192 0
v -672 -160 0
v -640 -160 0
v -896 -256 0
v -928 -256 0
v -928 -224 0
v -896 -224 0
v -928 -256 0
v -960 -256 0
v -960 -224 0
v -928 -224 0
v -1312 -256 0
v -1344 -256 0
v -1344 -224 0
v -1312 -224 0
v -1344 -256 0
v -1376 -256 0
v -1376 -224 0
v -1344 -224 0
v -1376 -256 0
v -1408 -256 0
v -1408 -224 0
v -1376 -224 0
v -1408 -256 0
v -1440 -256 0
v -1440 -224 0
v -1408 -224 0
v -896 -288 0
v -928 -288 0
v -928 -256 0
v -896 -256 0
v -928 -288 0
v -960 -288 0
v -960 -256 0
v -928 -256 0
v -960 -288 0
v -992 -288 0
v -992 -256 0
v -960 -256 0
v -992 -288 0
v -1024 -288 0
v -1024 -256 0
v -992 -256 0
v -1312 -288 0
v -1344 -288 0
v -1344 -256 0
v -1312 -256 0
v -1344 -288 0
v -1376 -288 0
v -1376 -256 0
v -1344 -256 0
v -1376 -288 0
v -1408 -288 0
v -1408 -256 0
v -1376 -256 0
v -1408 -288 0
v -1440 -288 0
v -1440 -256 0
v -1408 -256 0
v -896 -320 0
v -928 -320 0
v -928 -288 0
v -896 -288 0
v -928 -320 0
v -960 -320 0
v -960 -288 0
v -928 -288 0
v -960 -320 0
v -992 -320 0
v -992 -288 0
v -960 -288 0
v -992 -320 0
v -1024 -320 0
v -1024 -288 0
v -992 -288 0
v -1312 -320 0
v -1344 -320 0
v -1344 -288 0
v -1312 -288 0
v -1344 -320 0
v -1376 -320 0
v -1376 -288 0
v -1344 -288 0
v -1376 -320 0
v -1408 -320 0
v -1408 -288 0
v -1376 -288 0
v -1408 -320 0
v -1440 -320 0
v -1440 -288 0
v -1408 -288 0

# Texture cooridinates (Count = 12)
vt 0.25 0.5
vt 0.5 0.5
vt 0.5 0.75
vt 0.25 0.75
vt 0.75 0.5
vt 0.75 0.75
vt 0.25 0.25
vt 0.5 0.25
vt 0.75 0.25
vt 0.25 0
vt 0.5 0
vt 0.75 0

# Normal
vn 0 0 -1

# Mesh description
g stage_test1_mesh_0025

# Faces
f 1/1/1 2/2/1 3/3/1 4/4/1
f 5/2/1 6/5/1 7/6/1 8/3/1
f 9/1/1 10/2/1 11/3/1 12/4/1
f 13/2/1 14/5/1 15/6/1 16/3/1
f 17/7/1 18/8/1 19/2/1 20/1/1
f 21/8/1 22/9/1 23/5/1 24/2/1
f 25/7/1 26/8/1 27/2/1 28/1/1
f 29/8/1 30/9/1 31/5/1 32/2/1
f 33/10/1 34/11/1 35/8/1 36/7/1
f 37/11/1 38/12/1 39/9/1 40/8/1
f 41/10/1 42/11/1 43/8/1 44/7/1
f 45/11/1 46/12/1 47/9/1 48/8/1
f 49/1/1 50/2/1 51/3/1 52/4/1
f 53/2/1 54/5/1 55/6/1 56/3/1
f 57/1/1 58/2/1 59/3/1 60/4/1
f 61/2/1 62/5/1 63/6/1 64/3/1
f 65/1/1 66/2/1 67/3/1 68/4/1
f 69/2/1 70/5/1 71/6/1 72/3/1
f 73/7/1 74/8/1 75/2/1 76/1/1
f 77/8/1 78/9/1 79/5/1 80/2/1
f 81/7/1 82/8/1 83/2/1 84/1/1
f 85/8/1 86/9/1 87/5/1 88/2/1
f 89/7/1 90/8/1 91/2/1 92/1/1
f 93/8/1 94/9/1 95/5/1 96/2/1
f 97/7/1 98/8/1 99/2/1 100/1/1
f 101/8/1 102/9/1 103/5/1 104/2/1
f 105/10/1 106/11/1 107/8/1 108/7/1
f 109/11/1 110/12/1 111/9/1 112/8/1
f 113/10/1 114/11/1 115/8/1 116/7/1
f 117/11/1 118/12/1 119/9/1 120/8/1
f 121/10/1 122/11/1 123/8/1 124/7/1
f 125/11/1 126/12/1 127/9/1 128/8/1
f 129/10/1 130/11/1 131/8/1 132/7/1
f 133/11/1 134/12/1 135/9/1 136/8/1

