# Tiled2Unity generated file. Do not modify by hand.
# Wavefront file for 'level_ending_surface_mesh_0001.obj'

# Vertices (Count = 712)
v -9.5 -3.5 0
v -10 -3.5 0
v -10 -3 0
v -9.5 -3 0
v -10 -3.5 0
v -10.5 -3.5 0
v -10.5 -3 0
v -10 -3 0
v -25 -3.5 0
v -25.5 -3.5 0
v -25.5 -3 0
v -25 -3 0
v -25.5 -3.5 0
v -26 -3.5 0
v -26 -3 0
v -25.5 -3 0
v -27 -3.5 0
v -27.5 -3.5 0
v -27.5 -3 0
v -27 -3 0
v -27.5 -3.5 0
v -28 -3.5 0
v -28 -3 0
v -27.5 -3 0
v -29 -3.5 0
v -29.5 -3.5 0
v -29.5 -3 0
v -29 -3 0
v -29.5 -3.5 0
v -30 -3.5 0
v -30 -3 0
v -29.5 -3 0
v -31 -3.5 0
v -31.5 -3.5 0
v -31.5 -3 0
v -31 -3 0
v -31.5 -3.5 0
v -32 -3.5 0
v -32 -3 0
v -31.5 -3 0
v -34.5 -3.5 0
v -35 -3.5 0
v -35 -3 0
v -34.5 -3 0
v -35 -3.5 0
v -35.5 -3.5 0
v -35.5 -3 0
v -35 -3 0
v -9.5 -4 0
v -10 -4 0
v -10 -3.5 0
v -9.5 -3.5 0
v -10 -4 0
v -10.5 -4 0
v -10.5 -3.5 0
v -10 -3.5 0
v -25 -4 0
v -25.5 -4 0
v -25.5 -3.5 0
v -25 -3.5 0
v -25.5 -4 0
v -26 -4 0
v -26 -3.5 0
v -25.5 -3.5 0
v -27 -4 0
v -27.5 -4 0
v -27.5 -3.5 0
v -27 -3.5 0
v -27.5 -4 0
v -28 -4 0
v -28 -3.5 0
v -27.5 -3.5 0
v -29 -4 0
v -29.5 -4 0
v -29.5 -3.5 0
v -29 -3.5 0
v -29.5 -4 0
v -30 -4 0
v -30 -3.5 0
v -29.5 -3.5 0
v -31 -4 0
v -31.5 -4 0
v -31.5 -3.5 0
v -31 -3.5 0
v -31.5 -4 0
v -32 -4 0
v -32 -3.5 0
v -31.5 -3.5 0
v -34.5 -4 0
v -35 -4 0
v -35 -3.5 0
v -34.5 -3.5 0
v -35 -4 0
v -35.5 -4 0
v -35.5 -3.5 0
v -35 -3.5 0
v -7.5 -4.5 0
v -8 -4.5 0
v -8 -4 0
v -7.5 -4 0
v -8 -4.5 0
v -8.5 -4.5 0
v -8.5 -4 0
v -8 -4 0
v -9.5 -4.5 0
v -10 -4.5 0
v -10 -4 0
v -9.5 -4 0
v -10 -4.5 0
v -10.5 -4.5 0
v -10.5 -4 0
v -10 -4 0
v -11.5 -4.5 0
v -12 -4.5 0
v -12 -4 0
v -11.5 -4 0
v -12 -4.5 0
v -12.5 -4.5 0
v -12.5 -4 0
v -12 -4 0
v -25 -4.5 0
v -25.5 -4.5 0
v -25.5 -4 0
v -25 -4 0
v -25.5 -4.5 0
v -26 -4.5 0
v -26 -4 0
v -25.5 -4 0
v -27 -4.5 0
v -27.5 -4.5 0
v -27.5 -4 0
v -27 -4 0
v -27.5 -4.5 0
v -28 -4.5 0
v -28 -4 0
v -27.5 -4 0
v -29 -4.5 0
v -29.5 -4.5 0
v -29.5 -4 0
v -29 -4 0
v -29.5 -4.5 0
v -30 -4.5 0
v -30 -4 0
v -29.5 -4 0
v -31 -4.5 0
v -31.5 -4.5 0
v -31.5 -4 0
v -31 -4 0
v -31.5 -4.5 0
v -32 -4.5 0
v -32 -4 0
v -31.5 -4 0
v -34.5 -4.5 0
v -35 -4.5 0
v -35 -4 0
v -34.5 -4 0
v -35 -4.5 0
v -35.5 -4.5 0
v -35.5 -4 0
v -35 -4 0
v -7.5 -5 0
v -8 -5 0
v -8 -4.5 0
v -7.5 -4.5 0
v -8 -5 0
v -8.5 -5 0
v -8.5 -4.5 0
v -8 -4.5 0
v -9.5 -5 0
v -10 -5 0
v -10 -4.5 0
v -9.5 -4.5 0
v -10 -5 0
v -10.5 -5 0
v -10.5 -4.5 0
v -10 -4.5 0
v -11.5 -5 0
v -12 -5 0
v -12 -4.5 0
v -11.5 -4.5 0
v -12 -5 0
v -12.5 -5 0
v -12.5 -4.5 0
v -12 -4.5 0
v -25 -5 0
v -25.5 -5 0
v -25.5 -4.5 0
v -25 -4.5 0
v -25.5 -5 0
v -26 -5 0
v -26 -4.5 0
v -25.5 -4.5 0
v -27 -5 0
v -27.5 -5 0
v -27.5 -4.5 0
v -27 -4.5 0
v -27.5 -5 0
v -28 -5 0
v -28 -4.5 0
v -27.5 -4.5 0
v -29 -5 0
v -29.5 -5 0
v -29.5 -4.5 0
v -29 -4.5 0
v -29.5 -5 0
v -30 -5 0
v -30 -4.5 0
v -29.5 -4.5 0
v -31 -5 0
v -31.5 -5 0
v -31.5 -4.5 0
v -31 -4.5 0
v -31.5 -5 0
v -32 -5 0
v -32 -4.5 0
v -31.5 -4.5 0
v -34.5 -5 0
v -35 -5 0
v -35 -4.5 0
v -34.5 -4.5 0
v -35 -5 0
v -35.5 -5 0
v -35.5 -4.5 0
v -35 -4.5 0
v -7.5 -5.5 0
v -8 -5.5 0
v -8 -5 0
v -7.5 -5 0
v -8 -5.5 0
v -8.5 -5.5 0
v -8.5 -5 0
v -8 -5 0
v -9.5 -5.5 0
v -10 -5.5 0
v -10 -5 0
v -9.5 -5 0
v -10 -5.5 0
v -10.5 -5.5 0
v -10.5 -5 0
v -10 -5 0
v -11.5 -5.5 0
v -12 -5.5 0
v -12 -5 0
v -11.5 -5 0
v -12 -5.5 0
v -12.5 -5.5 0
v -12.5 -5 0
v -12 -5 0
v -25 -5.5 0
v -25.5 -5.5 0
v -25.5 -5 0
v -25 -5 0
v -25.5 -5.5 0
v -26 -5.5 0
v -26 -5 0
v -25.5 -5 0
v -27 -5.5 0
v -27.5 -5.5 0
v -27.5 -5 0
v -27 -5 0
v -27.5 -5.5 0
v -28 -5.5 0
v -28 -5 0
v -27.5 -5 0
v -29 -5.5 0
v -29.5 -5.5 0
v -29.5 -5 0
v -29 -5 0
v -29.5 -5.5 0
v -30 -5.5 0
v -30 -5 0
v -29.5 -5 0
v -31 -5.5 0
v -31.5 -5.5 0
v -31.5 -5 0
v -31 -5 0
v -31.5 -5.5 0
v -32 -5.5 0
v -32 -5 0
v -31.5 -5 0
v -34.5 -5.5 0
v -35 -5.5 0
v -35 -5 0
v -34.5 -5 0
v -35 -5.5 0
v -35.5 -5.5 0
v -35.5 -5 0
v -35 -5 0
v -5.5 -6 0
v -6 -6 0
v -6 -5.5 0
v -5.5 -5.5 0
v -6 -6 0
v -6.5 -6 0
v -6.5 -5.5 0
v -6 -5.5 0
v -7.5 -6 0
v -8 -6 0
v -8 -5.5 0
v -7.5 -5.5 0
v -8 -6 0
v -8.5 -6 0
v -8.5 -5.5 0
v -8 -5.5 0
v -9.5 -6 0
v -10 -6 0
v -10 -5.5 0
v -9.5 -5.5 0
v -10 -6 0
v -10.5 -6 0
v -10.5 -5.5 0
v -10 -5.5 0
v -11.5 -6 0
v -12 -6 0
v -12 -5.5 0
v -11.5 -5.5 0
v -12 -6 0
v -12.5 -6 0
v -12.5 -5.5 0
v -12 -5.5 0
v -25 -6 0
v -25.5 -6 0
v -25.5 -5.5 0
v -25 -5.5 0
v -25.5 -6 0
v -26 -6 0
v -26 -5.5 0
v -25.5 -5.5 0
v -27 -6 0
v -27.5 -6 0
v -27.5 -5.5 0
v -27 -5.5 0
v -27.5 -6 0
v -28 -6 0
v -28 -5.5 0
v -27.5 -5.5 0
v -29 -6 0
v -29.5 -6 0
v -29.5 -5.5 0
v -29 -5.5 0
v -29.5 -6 0
v -30 -6 0
v -30 -5.5 0
v -29.5 -5.5 0
v -31 -6 0
v -31.5 -6 0
v -31.5 -5.5 0
v -31 -5.5 0
v -31.5 -6 0
v -32 -6 0
v -32 -5.5 0
v -31.5 -5.5 0
v -34.5 -6 0
v -35 -6 0
v -35 -5.5 0
v -34.5 -5.5 0
v -35 -6 0
v -35.5 -6 0
v -35.5 -5.5 0
v -35 -5.5 0
v -5.5 -6.5 0
v -6 -6.5 0
v -6 -6 0
v -5.5 -6 0
v -6 -6.5 0
v -6.5 -6.5 0
v -6.5 -6 0
v -6 -6 0
v -7.5 -6.5 0
v -8 -6.5 0
v -8 -6 0
v -7.5 -6 0
v -8 -6.5 0
v -8.5 -6.5 0
v -8.5 -6 0
v -8 -6 0
v -11.5 -6.5 0
v -12 -6.5 0
v -12 -6 0
v -11.5 -6 0
v -12 -6.5 0
v -12.5 -6.5 0
v -12.5 -6 0
v -12 -6 0
v -25 -6.5 0
v -25.5 -6.5 0
v -25.5 -6 0
v -25 -6 0
v -25.5 -6.5 0
v -26 -6.5 0
v -26 -6 0
v -25.5 -6 0
v -27 -6.5 0
v -27.5 -6.5 0
v -27.5 -6 0
v -27 -6 0
v -27.5 -6.5 0
v -28 -6.5 0
v -28 -6 0
v -27.5 -6 0
v -29 -6.5 0
v -29.5 -6.5 0
v -29.5 -6 0
v -29 -6 0
v -29.5 -6.5 0
v -30 -6.5 0
v -30 -6 0
v -29.5 -6 0
v -31 -6.5 0
v -31.5 -6.5 0
v -31.5 -6 0
v -31 -6 0
v -31.5 -6.5 0
v -32 -6.5 0
v -32 -6 0
v -31.5 -6 0
v -34.5 -6.5 0
v -35 -6.5 0
v -35 -6 0
v -34.5 -6 0
v -35 -6.5 0
v -35.5 -6.5 0
v -35.5 -6 0
v -35 -6 0
v -5.5 -7 0
v -6 -7 0
v -6 -6.5 0
v -5.5 -6.5 0
v -6 -7 0
v -6.5 -7 0
v -6.5 -6.5 0
v -6 -6.5 0
v -7.5 -7 0
v -8 -7 0
v -8 -6.5 0
v -7.5 -6.5 0
v -8 -7 0
v -8.5 -7 0
v -8.5 -6.5 0
v -8 -6.5 0
v -11.5 -7 0
v -12 -7 0
v -12 -6.5 0
v -11.5 -6.5 0
v -12 -7 0
v -12.5 -7 0
v -12.5 -6.5 0
v -12 -6.5 0
v -25 -7 0
v -25.5 -7 0
v -25.5 -6.5 0
v -25 -6.5 0
v -25.5 -7 0
v -26 -7 0
v -26 -6.5 0
v -25.5 -6.5 0
v -27 -7 0
v -27.5 -7 0
v -27.5 -6.5 0
v -27 -6.5 0
v -27.5 -7 0
v -28 -7 0
v -28 -6.5 0
v -27.5 -6.5 0
v -29 -7 0
v -29.5 -7 0
v -29.5 -6.5 0
v -29 -6.5 0
v -29.5 -7 0
v -30 -7 0
v -30 -6.5 0
v -29.5 -6.5 0
v -31 -7 0
v -31.5 -7 0
v -31.5 -6.5 0
v -31 -6.5 0
v -31.5 -7 0
v -32 -7 0
v -32 -6.5 0
v -31.5 -6.5 0
v -34.5 -7 0
v -35 -7 0
v -35 -6.5 0
v -34.5 -6.5 0
v -35 -7 0
v -35.5 -7 0
v -35.5 -6.5 0
v -35 -6.5 0
v -5.5 -7.5 0
v -6 -7.5 0
v -6 -7 0
v -5.5 -7 0
v -6 -7.5 0
v -6.5 -7.5 0
v -6.5 -7 0
v -6 -7 0
v -7.5 -7.5 0
v -8 -7.5 0
v -8 -7 0
v -7.5 -7 0
v -8 -7.5 0
v -8.5 -7.5 0
v -8.5 -7 0
v -8 -7 0
v -11.5 -7.5 0
v -12 -7.5 0
v -12 -7 0
v -11.5 -7 0
v -12 -7.5 0
v -12.5 -7.5 0
v -12.5 -7 0
v -12 -7 0
v -25 -7.5 0
v -25.5 -7.5 0
v -25.5 -7 0
v -25 -7 0
v -25.5 -7.5 0
v -26 -7.5 0
v -26 -7 0
v -25.5 -7 0
v -27 -7.5 0
v -27.5 -7.5 0
v -27.5 -7 0
v -27 -7 0
v -27.5 -7.5 0
v -28 -7.5 0
v -28 -7 0
v -27.5 -7 0
v -29 -7.5 0
v -29.5 -7.5 0
v -29.5 -7 0
v -29 -7 0
v -29.5 -7.5 0
v -30 -7.5 0
v -30 -7 0
v -29.5 -7 0
v -5.5 -8 0
v -6 -8 0
v -6 -7.5 0
v -5.5 -7.5 0
v -6 -8 0
v -6.5 -8 0
v -6.5 -7.5 0
v -6 -7.5 0
v -7.5 -8 0
v -8 -8 0
v -8 -7.5 0
v -7.5 -7.5 0
v -8 -8 0
v -8.5 -8 0
v -8.5 -7.5 0
v -8 -7.5 0
v -11.5 -8 0
v -12 -8 0
v -12 -7.5 0
v -11.5 -7.5 0
v -12 -8 0
v -12.5 -8 0
v -12.5 -7.5 0
v -12 -7.5 0
v -25 -8 0
v -25.5 -8 0
v -25.5 -7.5 0
v -25 -7.5 0
v -25.5 -8 0
v -26 -8 0
v -26 -7.5 0
v -25.5 -7.5 0
v -27 -8 0
v -27.5 -8 0
v -27.5 -7.5 0
v -27 -7.5 0
v -27.5 -8 0
v -28 -8 0
v -28 -7.5 0
v -27.5 -7.5 0
v -29 -8 0
v -29.5 -8 0
v -29.5 -7.5 0
v -29 -7.5 0
v -29.5 -8 0
v -30 -8 0
v -30 -7.5 0
v -29.5 -7.5 0
v -5.5 -8.5 0
v -6 -8.5 0
v -6 -8 0
v -5.5 -8 0
v -6 -8.5 0
v -6.5 -8.5 0
v -6.5 -8 0
v -6 -8 0
v -7.5 -8.5 0
v -8 -8.5 0
v -8 -8 0
v -7.5 -8 0
v -8 -8.5 0
v -8.5 -8.5 0
v -8.5 -8 0
v -8 -8 0
v -11.5 -8.5 0
v -12 -8.5 0
v -12 -8 0
v -11.5 -8 0
v -12 -8.5 0
v -12.5 -8.5 0
v -12.5 -8 0
v -12 -8 0
v -25 -8.5 0
v -25.5 -8.5 0
v -25.5 -8 0
v -25 -8 0
v -25.5 -8.5 0
v -26 -8.5 0
v -26 -8 0
v -25.5 -8 0
v -27 -8.5 0
v -27.5 -8.5 0
v -27.5 -8 0
v -27 -8 0
v -27.5 -8.5 0
v -28 -8.5 0
v -28 -8 0
v -27.5 -8 0
v -5.5 -9 0
v -6 -9 0
v -6 -8.5 0
v -5.5 -8.5 0
v -6 -9 0
v -6.5 -9 0
v -6.5 -8.5 0
v -6 -8.5 0
v -11.5 -9 0
v -12 -9 0
v -12 -8.5 0
v -11.5 -8.5 0
v -12 -9 0
v -12.5 -9 0
v -12.5 -8.5 0
v -12 -8.5 0
v -25 -9 0
v -25.5 -9 0
v -25.5 -8.5 0
v -25 -8.5 0
v -25.5 -9 0
v -26 -9 0
v -26 -8.5 0
v -25.5 -8.5 0
v -27 -9 0
v -27.5 -9 0
v -27.5 -8.5 0
v -27 -8.5 0
v -27.5 -9 0
v -28 -9 0
v -28 -8.5 0
v -27.5 -8.5 0
v -12 -9.5 0
v -12.5 -9.5 0
v -12.5 -9 0
v -12 -9 0
v -25 -9.5 0
v -25.5 -9.5 0
v -25.5 -9 0
v -25 -9 0
v -25.5 -9.5 0
v -26 -9.5 0
v -26 -9 0
v -25.5 -9 0
v -27 -9.5 0
v -27.5 -9.5 0
v -27.5 -9 0
v -27 -9 0
v -27.5 -9.5 0
v -28 -9.5 0
v -28 -9 0
v -27.5 -9 0
v -12 -10 0
v -12.5 -10 0
v -12.5 -9.5 0
v -12 -9.5 0
v -25 -10 0
v -25.5 -10 0
v -25.5 -9.5 0
v -25 -9.5 0
v -25.5 -10 0
v -26 -10 0
v -26 -9.5 0
v -25.5 -9.5 0
v -27 -10 0
v -27.5 -10 0
v -27.5 -9.5 0
v -27 -9.5 0
v -27.5 -10 0
v -28 -10 0
v -28 -9.5 0
v -27.5 -9.5 0
v -25 -10.5 0
v -25.5 -10.5 0
v -25.5 -10 0
v -25 -10 0
v -25.5 -10.5 0
v -26 -10.5 0
v -26 -10 0
v -25.5 -10 0
v -27 -10.5 0
v -27.5 -10.5 0
v -27.5 -10 0
v -27 -10 0
v -27.5 -10.5 0
v -28 -10.5 0
v -28 -10 0
v -27.5 -10 0

# Texture cooridinates (Count = 18)
vt 0.25 0.5
vt 0.3333333 0.5
vt 0.3333333 1
vt 0.25 1
vt 0.4166667 0.5
vt 0.4166667 1
vt 0 0.5
vt 0.08333334 0.5
vt 0.08333334 1
vt 0 1
vt 0.1666667 0.5
vt 0.1666667 1
vt 0.25 0
vt 0.3333333 0
vt 0.4166667 0
vt 0 0
vt 0.08333334 0
vt 0.1666667 0

# Normal
vn 0 0 -1

# Mesh description
g level_ending_surface_mesh_0001

# Faces
f 1/1/1 2/2/1 3/3/1 4/4/1
f 5/2/1 6/5/1 7/6/1 8/3/1
f 9/7/1 10/8/1 11/9/1 12/10/1
f 13/8/1 14/11/1 15/12/1 16/9/1
f 17/7/1 18/8/1 19/9/1 20/10/1
f 21/8/1 22/11/1 23/12/1 24/9/1
f 25/7/1 26/8/1 27/9/1 28/10/1
f 29/8/1 30/11/1 31/12/1 32/9/1
f 33/1/1 34/2/1 35/3/1 36/4/1
f 37/2/1 38/5/1 39/6/1 40/3/1
f 41/7/1 42/8/1 43/9/1 44/10/1
f 45/8/1 46/11/1 47/12/1 48/9/1
f 49/13/1 50/14/1 51/2/1 52/1/1
f 53/14/1 54/15/1 55/5/1 56/2/1
f 57/16/1 58/17/1 59/8/1 60/7/1
f 61/17/1 62/18/1 63/11/1 64/8/1
f 65/16/1 66/17/1 67/8/1 68/7/1
f 69/17/1 70/18/1 71/11/1 72/8/1
f 73/7/1 74/8/1 75/9/1 76/10/1
f 77/8/1 78/11/1 79/12/1 80/9/1
f 81/1/1 82/2/1 83/3/1 84/4/1
f 85/2/1 86/5/1 87/6/1 88/3/1
f 89/16/1 90/17/1 91/8/1 92/7/1
f 93/17/1 94/18/1 95/11/1 96/8/1
f 97/11/1 98/1/1 99/4/1 100/12/1
f 101/1/1 102/2/1 103/3/1 104/4/1
f 105/13/1 106/14/1 107/2/1 108/1/1
f 109/14/1 110/15/1 111/5/1 112/2/1
f 113/1/1 114/2/1 115/3/1 116/4/1
f 117/2/1 118/5/1 119/6/1 120/3/1
f 121/16/1 122/17/1 123/8/1 124/7/1
f 125/17/1 126/18/1 127/11/1 128/8/1
f 129/7/1 130/8/1 131/9/1 132/10/1
f 133/8/1 134/11/1 135/12/1 136/9/1
f 137/7/1 138/8/1 139/9/1 140/10/1
f 141/8/1 142/11/1 143/12/1 144/9/1
f 145/1/1 146/2/1 147/3/1 148/4/1
f 149/2/1 150/5/1 151/6/1 152/3/1
f 153/7/1 154/8/1 155/9/1 156/10/1
f 157/8/1 158/11/1 159/12/1 160/9/1
f 161/11/1 162/1/1 163/4/1 164/12/1
f 165/1/1 166/2/1 167/3/1 168/4/1
f 169/13/1 170/14/1 171/2/1 172/1/1
f 173/14/1 174/15/1 175/5/1 176/2/1
f 177/1/1 178/2/1 179/3/1 180/4/1
f 181/2/1 182/5/1 183/6/1 184/3/1
f 185/16/1 186/17/1 187/8/1 188/7/1
f 189/17/1 190/18/1 191/11/1 192/8/1
f 193/16/1 194/17/1 195/8/1 196/7/1
f 197/17/1 198/18/1 199/11/1 200/8/1
f 201/7/1 202/8/1 203/9/1 204/10/1
f 205/8/1 206/11/1 207/12/1 208/9/1
f 209/1/1 210/2/1 211/3/1 212/4/1
f 213/2/1 214/5/1 215/6/1 216/3/1
f 217/16/1 218/17/1 219/8/1 220/7/1
f 221/17/1 222/18/1 223/11/1 224/8/1
f 225/11/1 226/1/1 227/4/1 228/12/1
f 229/1/1 230/2/1 231/3/1 232/4/1
f 233/13/1 234/14/1 235/2/1 236/1/1
f 237/14/1 238/15/1 239/5/1 240/2/1
f 241/1/1 242/2/1 243/3/1 244/4/1
f 245/2/1 246/5/1 247/6/1 248/3/1
f 249/16/1 250/17/1 251/8/1 252/7/1
f 253/17/1 254/18/1 255/11/1 256/8/1
f 257/7/1 258/8/1 259/9/1 260/10/1
f 261/8/1 262/11/1 263/12/1 264/9/1
f 265/7/1 266/8/1 267/9/1 268/10/1
f 269/8/1 270/11/1 271/12/1 272/9/1
f 273/1/1 274/2/1 275/3/1 276/4/1
f 277/2/1 278/5/1 279/6/1 280/3/1
f 281/7/1 282/8/1 283/9/1 284/10/1
f 285/8/1 286/11/1 287/12/1 288/9/1
f 289/11/1 290/1/1 291/4/1 292/12/1
f 293/1/1 294/2/1 295/3/1 296/4/1
f 297/11/1 298/1/1 299/4/1 300/12/1
f 301/1/1 302/2/1 303/3/1 304/4/1
f 305/13/1 306/14/1 307/2/1 308/1/1
f 309/14/1 310/15/1 311/5/1 312/2/1
f 313/1/1 314/2/1 315/3/1 316/4/1
f 317/2/1 318/5/1 319/6/1 320/3/1
f 321/16/1 322/17/1 323/8/1 324/7/1
f 325/17/1 326/18/1 327/11/1 328/8/1
f 329/16/1 330/17/1 331/8/1 332/7/1
f 333/17/1 334/18/1 335/11/1 336/8/1
f 337/7/1 338/8/1 339/9/1 340/10/1
f 341/8/1 342/11/1 343/12/1 344/9/1
f 345/1/1 346/2/1 347/3/1 348/4/1
f 349/2/1 350/5/1 351/6/1 352/3/1
f 353/16/1 354/17/1 355/8/1 356/7/1
f 357/17/1 358/18/1 359/11/1 360/8/1
f 361/11/1 362/1/1 363/4/1 364/12/1
f 365/1/1 366/2/1 367/3/1 368/4/1
f 369/11/1 370/1/1 371/4/1 372/12/1
f 373/1/1 374/2/1 375/3/1 376/4/1
f 377/1/1 378/2/1 379/3/1 380/4/1
f 381/2/1 382/5/1 383/6/1 384/3/1
f 385/16/1 386/17/1 387/8/1 388/7/1
f 389/17/1 390/18/1 391/11/1 392/8/1
f 393/7/1 394/8/1 395/9/1 396/10/1
f 397/8/1 398/11/1 399/12/1 400/9/1
f 401/7/1 402/8/1 403/9/1 404/10/1
f 405/8/1 406/11/1 407/12/1 408/9/1
f 409/1/1 410/2/1 411/3/1 412/4/1
f 413/2/1 414/5/1 415/6/1 416/3/1
f 417/7/1 418/8/1 419/9/1 420/10/1
f 421/8/1 422/11/1 423/12/1 424/9/1
f 425/11/1 426/1/1 427/4/1 428/12/1
f 429/1/1 430/2/1 431/3/1 432/4/1
f 433/11/1 434/1/1 435/4/1 436/12/1
f 437/1/1 438/2/1 439/3/1 440/4/1
f 441/1/1 442/2/1 443/3/1 444/4/1
f 445/2/1 446/5/1 447/6/1 448/3/1
f 449/16/1 450/17/1 451/8/1 452/7/1
f 453/17/1 454/18/1 455/11/1 456/8/1
f 457/16/1 458/17/1 459/8/1 460/7/1
f 461/17/1 462/18/1 463/11/1 464/8/1
f 465/7/1 466/8/1 467/9/1 468/10/1
f 469/8/1 470/11/1 471/12/1 472/9/1
f 473/13/1 474/14/1 475/2/1 476/1/1
f 477/14/1 478/15/1 479/5/1 480/2/1
f 481/16/1 482/17/1 483/8/1 484/7/1
f 485/17/1 486/18/1 487/11/1 488/8/1
f 489/11/1 490/1/1 491/4/1 492/12/1
f 493/1/1 494/2/1 495/3/1 496/4/1
f 497/11/1 498/1/1 499/4/1 500/12/1
f 501/1/1 502/2/1 503/3/1 504/4/1
f 505/1/1 506/2/1 507/3/1 508/4/1
f 509/2/1 510/5/1 511/6/1 512/3/1
f 513/16/1 514/17/1 515/8/1 516/7/1
f 517/17/1 518/18/1 519/11/1 520/8/1
f 521/7/1 522/8/1 523/9/1 524/10/1
f 525/8/1 526/11/1 527/12/1 528/9/1
f 529/7/1 530/8/1 531/9/1 532/10/1
f 533/8/1 534/11/1 535/12/1 536/9/1
f 537/11/1 538/1/1 539/4/1 540/12/1
f 541/1/1 542/2/1 543/3/1 544/4/1
f 545/11/1 546/1/1 547/4/1 548/12/1
f 549/1/1 550/2/1 551/3/1 552/4/1
f 553/1/1 554/2/1 555/3/1 556/4/1
f 557/2/1 558/5/1 559/6/1 560/3/1
f 561/7/1 562/8/1 563/9/1 564/10/1
f 565/8/1 566/11/1 567/12/1 568/9/1
f 569/11/1 570/1/1 571/4/1 572/12/1
f 573/17/1 574/18/1 575/11/1 576/8/1
f 577/7/1 578/8/1 579/9/1 580/10/1
f 581/8/1 582/11/1 583/12/1 584/9/1
f 585/11/1 586/1/1 587/4/1 588/12/1
f 589/1/1 590/2/1 591/3/1 592/4/1
f 593/18/1 594/13/1 595/1/1 596/11/1
f 597/13/1 598/14/1 599/2/1 600/1/1
f 601/1/1 602/2/1 603/3/1 604/4/1
f 605/2/1 606/5/1 607/6/1 608/3/1
f 609/16/1 610/17/1 611/8/1 612/7/1
f 613/17/1 614/18/1 615/11/1 616/8/1
f 617/7/1 618/8/1 619/9/1 620/10/1
f 621/8/1 622/11/1 623/12/1 624/9/1
f 625/18/1 626/13/1 627/1/1 628/11/1
f 629/13/1 630/14/1 631/2/1 632/1/1
f 633/1/1 634/2/1 635/3/1 636/4/1
f 637/2/1 638/5/1 639/6/1 640/3/1
f 641/7/1 642/8/1 643/9/1 644/10/1
f 645/8/1 646/11/1 647/12/1 648/9/1
f 649/16/1 650/17/1 651/8/1 652/7/1
f 653/17/1 654/18/1 655/11/1 656/8/1
f 657/2/1 658/5/1 659/6/1 660/3/1
f 661/16/1 662/17/1 663/8/1 664/7/1
f 665/17/1 666/18/1 667/11/1 668/8/1
f 669/16/1 670/17/1 671/8/1 672/7/1
f 673/17/1 674/18/1 675/11/1 676/8/1
f 677/14/1 678/15/1 679/5/1 680/2/1
f 681/7/1 682/8/1 683/9/1 684/10/1
f 685/8/1 686/11/1 687/12/1 688/9/1
f 689/7/1 690/8/1 691/9/1 692/10/1
f 693/8/1 694/11/1 695/12/1 696/9/1
f 697/16/1 698/17/1 699/8/1 700/7/1
f 701/17/1 702/18/1 703/11/1 704/8/1
f 705/16/1 706/17/1 707/8/1 708/7/1
f 709/17/1 710/18/1 711/11/1 712/8/1

